<svg width="16.000000" height="14.234863" viewBox="0 0 16 14.2349" fill="none" xmlns="http://www.w3.org/2000/svg" xmlns:xlink="http://www.w3.org/1999/xlink">
	<desc>
			Created with Pixso.
	</desc>
	<defs/>
	<path id="Vector" d="M7.3266 1.16028C7.21582 1.05652 7.1014 0.958984 6.98352 0.867798C6.23901 0.291992 5.39319 0 4.4696 0C3.23401 0 2.09741 0.494751 1.26917 1.39307C0.450806 2.28088 0 3.49377 0 4.80847C0 6.16162 0.504272 7.40027 1.58691 8.70667C2.55542 9.87524 3.94739 11.0615 5.55933 12.4352C6.10974 12.9043 6.73364 13.436 7.38147 14.0024C7.55261 14.1523 7.77222 14.2349 8 14.2349C8.22766 14.2349 8.44739 14.1523 8.61829 14.0027C9.26611 13.4362 9.89038 12.9042 10.441 12.4348C12.0527 11.0614 13.4447 9.87524 14.4132 8.70654C15.4958 7.40027 16 6.16162 16 4.80835C16 3.49377 15.5492 2.28088 14.7307 1.39307C13.9025 0.494751 12.766 0 11.5304 0C10.6068 0 9.76099 0.291992 9.01636 0.867798C8.89851 0.958984 8.78414 1.05652 8.67339 1.16028C8.43103 1.38733 8.20602 1.64423 8 1.92908C7.79406 1.64429 7.56902 1.38739 7.3266 1.16028ZM10.645 1.12744Q11.0685 1 11.5304 1Q12.0449 1 12.5168 1.14185Q12.7038 1.19806 12.8842 1.27655Q13.1194 1.37897 13.3332 1.51489Q13.6949 1.74487 13.9955 2.07086Q14.083 2.16583 14.1632 2.2666Q14.5231 2.71893 14.7349 3.28906Q14.7484 3.32532 14.7612 3.36182Q15 4.04327 15 4.80835Q15 5.13342 14.9506 5.45081Q14.8756 5.93329 14.6864 6.39807Q14.357 7.20728 13.6432 8.06848Q13.0374 8.79956 11.9929 9.75647Q11.3356 10.3586 9.79265 11.6735L9.79235 11.6738L9.79066 11.6752L9.78899 11.6766L9.78562 11.6795L9.78226 11.6824L9.78057 11.6838L9.77888 11.6852Q8.64355 12.653 8.00002 13.215Q7.35217 12.6493 6.20914 11.6751L6.20794 11.6741Q4.66494 10.3591 4.00737 9.75671Q2.96278 8.79968 2.35688 8.0686Q1.64309 7.20728 1.31366 6.39807Q1.12398 5.93213 1.049 5.44843Q1 5.13226 1 4.80847Q1 4.04309 1.23892 3.36145Q1.25166 3.32513 1.26506 3.28906Q1.47729 2.71796 1.83795 2.26508Q1.91754 2.1651 2.00436 2.07092Q2.30482 1.74506 2.66633 1.51514Q2.88033 1.37903 3.11574 1.27655Q3.29623 1.198 3.48341 1.14178Q3.95522 1 4.4696 1Q4.93182 1 5.35562 1.12762Q5.8948 1.28998 6.37179 1.65887Q6.82263 2.00751 7.18968 2.51508L7.99995 3.63556L8.81029 2.51514Q9.17743 2.00745 9.62808 1.65887Q10.1054 1.28973 10.645 1.12744Z" fill="#ED165F" fill-opacity="1.000000" fill-rule="evenodd"/>
</svg>
