<svg width="14.000000" height="16.071747" viewBox="0 0 14 16.0717" fill="none" xmlns="http://www.w3.org/2000/svg" xmlns:xlink="http://www.w3.org/1999/xlink">
	<desc>
			Created with Pixso.
	</desc>
	<defs/>
	<path id="Vector" d="M1.00488 5.0538L0.470703 5.0538C0.210938 5.0538 0 5.26462 0 5.52466C0 5.7847 0.210938 5.99551 0.470703 5.99551L1.00488 5.99551L1.00488 5.0538Z" fill="#000000" fill-opacity="1.000000" fill-rule="nonzero"/>
	<path id="Vector" d="M1.00488 12.5874L0.470703 12.5874C0.210938 12.5874 0 12.7982 0 13.0583C0 13.3183 0.210938 13.5291 0.470703 13.5291L1.00488 13.5291L1.00488 12.5874Z" fill="#000000" fill-opacity="1.000000" fill-rule="nonzero"/>
	<path id="Vector" d="M1.00488 10.0762L0.470703 10.0762C0.210938 10.0762 0 10.287 0 10.5471C0 10.8071 0.210938 11.0179 0.470703 11.0179L1.00488 11.0179L1.00488 10.0762Z" fill="#000000" fill-opacity="1.000000" fill-rule="nonzero"/>
	<path id="Vector" d="M1.00488 7.56503L0.470703 7.56503C0.210938 7.56503 0 7.77585 0 8.03589C0 8.29593 0.210938 8.50674 0.470703 8.50674L1.00488 8.50674L1.00488 7.56503Z" fill="#000000" fill-opacity="1.000000" fill-rule="nonzero"/>
	<path id="Vector" d="M1.00488 2.5426L0.470703 2.5426C0.210938 2.5426 0 2.75342 0 3.01346C0 3.2735 0.210938 3.48431 0.470703 3.48431L1.00488 3.48431L1.00488 2.5426Z" fill="#000000" fill-opacity="1.000000" fill-rule="nonzero"/>
	<path id="Vector" d="M4.01855 0L2.41699 0C1.63867 0 1.00488 0.633667 1.00488 1.41257L1.00488 2.5426L2.48047 2.5426C2.74023 2.5426 2.95117 2.75342 2.95117 3.01346C2.95117 3.2735 2.74023 3.48431 2.48047 3.48431C2.05176 3.48431 1.46582 3.48431 1.00488 3.48431L1.00488 5.0538L2.48047 5.0538C2.74023 5.0538 2.95117 5.26462 2.95117 5.52466C2.95117 5.7847 2.74023 5.99551 2.48047 5.99551C1.71582 5.99551 2.16211 5.99551 1.00488 5.99551L1.00488 7.56503L2.48047 7.56503C2.74023 7.56503 2.95117 7.77585 2.95117 8.03589C2.95117 8.2959 2.74023 8.50671 2.48047 8.50671C2.05176 8.50671 1.46582 8.50671 1.00488 8.50671L1.00488 10.0762L2.48047 10.0762C2.74023 10.0762 2.95117 10.287 2.95117 10.5471C2.95117 10.8071 2.74023 11.0179 2.48047 11.0179C1.71582 11.0179 2.16211 11.0179 1.00488 11.0179L1.00488 12.5874L2.48047 12.5874C2.74023 12.5874 2.95117 12.7982 2.95117 13.0583C2.95117 13.3183 2.74023 13.5291 2.48047 13.5291C2.05176 13.5291 1.46582 13.5291 1.00488 13.5291L1.00488 14.6592C1.00488 15.4381 1.63867 16.0717 2.41699 16.0717L4.01855 16.0717L4.01855 0Z" fill="#000000" fill-opacity="1.000000" fill-rule="nonzero"/>
	<path id="Vector" d="M7.94141 3.48431L10.0762 3.48431L10.0762 4.55157L7.94141 4.55157L7.94141 3.48431Z" fill="#000000" fill-opacity="1.000000" fill-rule="nonzero"/>
	<path id="Vector" d="M12.5879 0L4.95996 0L4.95996 16.0717L12.5879 16.0717C13.3662 16.0717 14 15.4381 14 14.6592L14 1.41257C14 0.633667 13.3662 0 12.5879 0ZM11.0186 5.02243C11.0186 5.28247 10.8076 5.49329 10.5479 5.49329L7.4707 5.49329C7.21094 5.49329 7 5.28247 7 5.02243L7 3.01346C7 2.75342 7.21094 2.5426 7.4707 2.5426L10.5479 2.5426C10.8076 2.5426 11.0186 2.75342 11.0186 3.01346L11.0186 5.02243Z" fill="#000000" fill-opacity="1.000000" fill-rule="nonzero"/>
</svg>
