<svg width="7.309998" height="14.006836" viewBox="0 0 7.31 14.0068" fill="none" xmlns="http://www.w3.org/2000/svg" xmlns:xlink="http://www.w3.org/1999/xlink">
	<desc>
			Created with Pixso.
	</desc>
	<defs/>
	<path id="Path 38" d="M4.74402 14.0068L4.74402 7.62866L6.922 7.62866L7.233 5.13989L4.74402 5.13989L4.74402 3.58472C4.74402 2.88477 4.97699 2.34082 5.98801 2.34082L7.31 2.34082L7.31 0.0847168C7 0.0847168 6.22198 0.00683594 5.367 0.00683594C4.93393 -0.0224609 4.49969 0.0427246 4.09427 0.197754C3.68884 0.352783 3.32187 0.59375 3.01868 0.904541C2.71552 1.21509 2.48334 1.58765 2.3382 1.99683C2.19305 2.40576 2.1384 2.84155 2.17801 3.27368L2.17801 5.13989L0 5.13989L0 7.62866L2.17801 7.62866L2.17801 14.0068L4.74402 14.0068Z" fill="#ED165F" fill-opacity="1.000000" fill-rule="evenodd"/>
</svg>
