<svg width="14.029114" height="14.029297" viewBox="0 0 14.0291 14.0293" fill="none" xmlns="http://www.w3.org/2000/svg" xmlns:xlink="http://www.w3.org/1999/xlink">
	<desc>
			Created with Pixso.
	</desc>
	<defs/>
	<path id="Path 40" d="M7.01456 1.25854C7.94858 1.22363 8.88391 1.24951 9.81454 1.33667C10.2659 1.33081 10.7144 1.40991 11.1365 1.56958C11.719 1.84106 12.1871 2.30908 12.4586 2.8916C12.6187 3.31396 12.6981 3.7627 12.6925 4.2146C12.6925 4.91455 12.7705 5.14746 12.7705 7.01465C12.8055 7.94849 12.7795 8.88379 12.6925 9.81445C12.6983 10.2659 12.6193 10.7144 12.4596 11.1365C12.1881 11.719 11.72 12.187 11.1375 12.4585C10.7153 12.6182 10.2669 12.6973 9.81555 12.6917C9.11554 12.6917 8.88254 12.7695 7.01556 12.7695C6.08151 12.8044 5.14618 12.7786 4.21555 12.6917C3.76419 12.6973 3.31577 12.6182 2.89355 12.4585C2.31113 12.187 1.84302 11.719 1.57156 11.1365C1.41116 10.7144 1.33145 10.2661 1.33655 9.81445C1.33655 9.1145 1.25854 8.88159 1.25854 7.01465C1.22354 6.08057 1.2496 5.14526 1.33655 4.2146C1.33081 3.76318 1.40985 3.3147 1.56955 2.89258C1.70547 2.604 1.8898 2.34082 2.11456 2.1145C2.29709 1.84277 2.57452 1.64868 2.89255 1.57056C3.3147 1.4104 3.76312 1.33105 4.21454 1.33667C5.1452 1.24951 6.08051 1.22363 7.01456 1.25854ZM7.01456 0.0146484C6.05453 -0.0195312 5.09332 0.00634766 4.13654 0.0925293C3.55203 0.0910645 2.9722 0.196533 2.42554 0.403564C1.95367 0.557617 1.52661 0.824707 1.18155 1.18164C0.824707 1.52661 0.557617 1.95361 0.403534 2.42554C0.159393 2.96118 0.0524902 3.54932 0.0925598 4.13647C0.00640869 5.09326 -0.0196228 6.05444 0.0145569 7.01465C-0.0196228 7.97461 0.00640869 8.93579 0.0925598 9.89258C0.0911865 10.4771 0.196564 11.0569 0.403534 11.6035C0.557617 12.0754 0.824707 12.5024 1.18155 12.8477C1.52661 13.2043 1.95367 13.4714 2.42554 13.6255C2.9722 13.8325 3.55203 13.938 4.13654 13.9365C5.09332 14.0227 6.05453 14.0488 7.01456 14.0146C7.97458 14.0488 8.93579 14.0227 9.89255 13.9365C10.4771 13.938 11.0569 13.8325 11.6035 13.6255C12.072 13.4641 12.4975 13.1982 12.8478 12.8479C13.1982 12.4976 13.4641 12.072 13.6255 11.6035C13.8325 11.0569 13.9379 10.4771 13.9366 9.89258C13.9366 9.1145 14.0146 8.88159 14.0146 7.01465C14.0487 6.05444 14.0227 5.09326 13.9366 4.13647C13.9379 3.552 13.8325 2.97217 13.6255 2.42554C13.4715 1.95361 13.2044 1.52661 12.8476 1.18164C12.5025 0.824707 12.0754 0.557617 11.6035 0.403564C11.0569 0.196533 10.4771 0.0910645 9.89255 0.0925293C8.93579 0.00634766 7.97458 -0.0195312 7.01456 0.0146484ZM7.01456 3.43652C6.54251 3.42871 6.07373 3.51587 5.63608 3.69287C5.19843 3.86987 4.80087 4.1333 4.46704 4.46704C4.13321 4.80078 3.86996 5.19849 3.69293 5.63599C3.5159 6.07373 3.42871 6.54248 3.43655 7.01465C3.43655 7.72217 3.64639 8.41406 4.03955 9.00244C4.43271 9.59082 4.99152 10.0493 5.64529 10.3203C6.2991 10.5911 7.01852 10.6619 7.71259 10.5237C8.40665 10.3857 9.04419 10.0449 9.54459 9.54468C10.045 9.04419 10.3857 8.40674 10.5238 7.71265C10.6619 7.01855 10.591 6.29907 10.3202 5.64526C10.0494 4.99146 9.59079 4.43262 9.00238 4.03955C8.41397 3.64648 7.7222 3.43652 7.01456 3.43652ZM7.01456 9.34766C6.70663 9.35303 6.40079 9.29663 6.1152 9.1814C5.82965 9.06592 5.57025 8.89429 5.35248 8.67651C5.13474 8.45874 4.9631 8.19946 4.84781 7.91382C4.73254 7.62842 4.67599 7.32251 4.68155 7.01465C4.67599 6.70654 4.73254 6.40088 4.84781 6.11523C4.9631 5.82959 5.13474 5.57031 5.35248 5.35254C5.57025 5.13477 5.82965 4.96313 6.1152 4.8479C6.40079 4.73242 6.70663 4.67603 7.01456 4.68164C7.32245 4.67603 7.62833 4.73242 7.91388 4.8479C8.19946 4.96313 8.45886 5.13477 8.67661 5.35254C8.89438 5.57031 9.06601 5.82959 9.18127 6.11523C9.29657 6.40088 9.35312 6.70654 9.34756 7.01465C9.35312 7.32251 9.29657 7.62842 9.18127 7.91382C9.06601 8.19946 8.89438 8.45874 8.67661 8.67651C8.45886 8.89429 8.19946 9.06592 7.91388 9.1814C7.62833 9.29663 7.32245 9.35303 7.01456 9.34766ZM10.7476 2.42554C10.5782 2.42554 10.4128 2.47583 10.272 2.56982C10.1312 2.66382 10.0215 2.79761 9.9567 2.95386C9.89191 3.11035 9.87497 3.28247 9.90799 3.44849C9.94104 3.6145 10.0226 3.76709 10.1423 3.88672C10.262 4.00659 10.4145 4.08813 10.5806 4.12109C10.7466 4.15405 10.9187 4.13721 11.0751 4.07251C11.2315 4.00757 11.3652 3.89795 11.4593 3.75708C11.5533 3.61646 11.6035 3.45093 11.6035 3.28149C11.6017 3.05518 11.511 2.83838 11.3508 2.67822C11.1907 2.51807 10.974 2.42749 10.7476 2.42554Z" fill="#ED165F" fill-opacity="1.000000" fill-rule="evenodd"/>
</svg>
