<svg width="16.000000" height="14.234863" viewBox="0 0 16 14.2349" fill="none" xmlns="http://www.w3.org/2000/svg" xmlns:xlink="http://www.w3.org/1999/xlink">
	<desc>
			Created with Pixso.
	</desc>
	<defs/>
	<path id="Vector" d="M7.32666 1.16031C7.21582 1.05652 7.10132 0.958954 6.9834 0.867798C6.23901 0.291992 5.39307 0 4.46973 0C3.23389 0 2.09741 0.494751 1.26904 1.39307C0.450684 2.28088 0 3.49377 0 4.80847C0 6.16162 0.504395 7.40027 1.58691 8.70667C2.55542 9.87524 3.94727 11.0615 5.55933 12.4352C6.10986 12.9043 6.73364 13.436 7.38135 14.0024C7.55273 14.1523 7.77222 14.2349 8 14.2349C8.22754 14.2349 8.44727 14.1523 8.61816 14.0027C9.26611 13.4362 9.89038 12.9042 10.4409 12.4348C12.0527 11.0614 13.4448 9.87524 14.4131 8.70654C15.4958 7.40027 16 6.16162 16 4.80835C16 3.49377 15.5493 2.28088 14.7307 1.39307C13.9023 0.494751 12.7661 0 11.5303 0C10.6069 0 9.76099 0.291992 9.01636 0.867798C8.89844 0.958954 8.78418 1.05652 8.67334 1.16028C8.43091 1.38736 8.20605 1.6442 8 1.92908C7.79395 1.64429 7.56909 1.38739 7.32666 1.16031ZM10.645 1.12741Q11.0686 1 11.5303 1Q12.0449 1 12.5168 1.14185Q12.7039 1.19806 12.8843 1.27655Q13.1194 1.37894 13.3333 1.51492Q13.6948 1.74487 13.9954 2.07089Q14.083 2.16583 14.1631 2.2666Q14.5229 2.71896 14.7349 3.28906Q14.7485 3.32532 14.7612 3.36185Q15 4.04324 15 4.80835Q15 5.13342 14.9507 5.45081Q14.8755 5.93332 14.6863 6.39807Q14.3569 7.20728 13.6433 8.06845Q13.0374 8.79956 11.9929 9.7565Q11.3357 10.3586 9.79272 11.6735L9.79224 11.6738L9.79077 11.6752L9.78906 11.6766L9.78564 11.6795L9.78223 11.6824L9.78052 11.6838L9.77881 11.6852Q8.64355 12.653 8 13.215Q7.35205 12.6493 6.20923 11.6751L6.20801 11.6741Q4.66504 10.3592 4.00732 9.75668Q2.96289 8.79965 2.35693 8.06857Q1.64307 7.20728 1.31372 6.39804Q1.12402 5.93213 1.04907 5.44839Q1 5.13223 1 4.80847Q1 4.04309 1.23901 3.36145Q1.25171 3.32513 1.26514 3.28903Q1.47729 2.71796 1.83789 2.26505Q1.91748 2.1651 2.00439 2.07092Q2.30493 1.74503 2.66626 1.51514Q2.88037 1.37903 3.11572 1.27658Q3.29614 1.198 3.4834 1.14175Q3.95532 1 4.46973 1Q4.93188 1 5.35571 1.12759Q5.89478 1.28995 6.37183 1.65887Q6.82275 2.00751 7.1897 2.51508L8 3.63553L8.8103 2.51511Q9.17749 2.00748 9.62817 1.65887Q10.1055 1.28973 10.645 1.12741Z" fill="#ED165F" fill-opacity="1.000000" fill-rule="evenodd"/>
</svg>
