<svg width="14.000000" height="13.975464" viewBox="0 0 14 13.9755" fill="none" xmlns="http://www.w3.org/2000/svg" xmlns:xlink="http://www.w3.org/1999/xlink">
	<desc>
			Created with Pixso.
	</desc>
	<defs/>
	<path id="Vector" d="M13.0869 2.71463L12.0674 2.71463C12.2021 2.50189 12.291 2.26309 12.3164 2.01056C12.3975 1.20346 11.9717 0.47995 11.248 0.15918C10.583 -0.135681 9.83594 -0.0151367 9.29785 0.473053L8.01074 1.63925C7.75977 1.36517 7.39941 1.1929 7 1.1929C6.59961 1.1929 6.23828 1.36572 5.98828 1.64066L4.69922 0.4729C4.16016 -0.0152893 3.41309 -0.135345 2.74805 0.159332C2.02441 0.480133 1.59961 1.20389 1.68066 2.01096C1.70605 2.26334 1.79492 2.50201 1.92871 2.71463L0.913086 2.71463C0.40918 2.71463 0 3.12341 0 3.62766L0 4.99722C0 5.24933 0.204102 5.45377 0.456055 5.45377L13.5439 5.45377C13.7959 5.45377 14 5.24936 14 4.99722L14 3.62766C14 3.12341 13.5908 2.71463 13.0869 2.71463ZM5.63086 2.56247L5.63086 2.71463L3.48242 2.71463C2.91504 2.71463 2.46875 2.18564 2.61035 1.59485C2.67285 1.33469 2.86035 1.11288 3.10352 1.00061C3.4375 0.846466 3.80664 0.895935 4.08691 1.14951L5.63086 2.54901C5.63086 2.55353 5.63086 2.55795 5.63086 2.56247ZM11.4102 1.88934C11.376 2.36383 10.9473 2.71469 10.4717 2.71469L8.36914 2.71469L8.36914 2.56253C8.36914 2.55713 8.36914 2.55179 8.36914 2.54642C8.71875 2.22934 9.47754 1.5416 9.88965 1.16855C10.123 0.956543 10.4502 0.857574 10.7529 0.947815C11.1875 1.0773 11.4424 1.4465 11.4102 1.88934Z" fill="#FFFFFF" fill-opacity="1.000000" fill-rule="nonzero"/>
	<path id="Vector" d="M0.913086 6.36679L0.913086 13.0624C0.913086 13.5667 1.32227 13.9755 1.82617 13.9755L6.08691 13.9755L6.08691 6.36679L0.913086 6.36679Z" fill="#FFFFFF" fill-opacity="1.000000" fill-rule="nonzero"/>
	<path id="Vector" d="M7.91309 6.36679L7.91309 13.9755L12.1738 13.9755C12.6777 13.9755 13.0869 13.5667 13.0869 13.0624L13.0869 6.36679L7.91309 6.36679Z" fill="#FFFFFF" fill-opacity="1.000000" fill-rule="nonzero"/>
</svg>
