<svg width="14.000000" height="12.455505" viewBox="0 0 14 12.4555" fill="none" xmlns="http://www.w3.org/2000/svg" xmlns:xlink="http://www.w3.org/1999/xlink">
	<desc>
			Created with Pixso.
	</desc>
	<defs/>
	<path id="Vector" d="M12.8896 1.21893C12.165 0.432922 11.1699 0 10.0889 0C9.28125 0 8.54102 0.255493 7.88965 0.759338C7.56055 1.01364 7.2627 1.32477 7 1.68796C6.7373 1.32489 6.43945 1.01364 6.11035 0.759338C5.45898 0.255493 4.71875 0 3.91113 0C2.83008 0 1.83496 0.432922 1.11035 1.21893C0.394531 1.99576 0 3.05707 0 4.2074C0 5.39142 0.441406 6.47522 1.38867 7.61835C2.23633 8.64084 3.4541 9.67883 4.86426 10.8808C5.3457 11.2913 5.8916 11.7565 6.45898 12.2521C6.6084 12.3833 6.80078 12.4555 7 12.4555C7.19922 12.4555 7.3916 12.3833 7.54102 12.2523C8.10742 11.7567 8.6543 11.2911 9.13574 10.8805C10.5459 9.67871 11.7637 8.64084 12.6113 7.61823C13.5586 6.47522 14 5.39142 14 4.20731C14 3.05707 13.6055 1.99576 12.8896 1.21893Z" fill="#FFFFFF" fill-opacity="1.000000" fill-rule="nonzero"/>
</svg>
