<svg width="14.000000" height="16.780609" viewBox="0 0 14 16.7806" fill="none" xmlns="http://www.w3.org/2000/svg" xmlns:xlink="http://www.w3.org/1999/xlink">
	<desc>
			Created with Pixso.
	</desc>
	<defs/>
	<path id="Vector" d="M6.89453 8.08322C8.00488 8.08322 8.9668 7.68494 9.75195 6.89911C10.5381 6.11343 10.9355 5.1521 10.9355 4.04147C10.9355 2.93124 10.5381 1.96979 9.75195 1.18384C8.96582 0.398285 8.00488 0 6.89453 0C5.7832 0 4.82227 0.398285 4.03711 1.18396C3.25098 1.96967 2.85254 2.93112 2.85254 4.04147C2.85254 5.1521 3.25098 6.11356 4.03711 6.89923C4.82227 7.68481 5.78418 8.08322 6.89453 8.08322Z" fill="#FFFFFF" fill-opacity="1.000000" fill-rule="nonzero"/>
	<path id="Vector" d="M13.9658 12.9034C13.9434 12.5764 13.8975 12.2197 13.8301 11.8431C13.7617 11.4636 13.6738 11.1049 13.5693 10.777C13.4609 10.4381 13.3135 10.1035 13.1309 9.78278C12.9414 9.44992 12.7197 9.16006 12.4707 8.92154C12.209 8.67203 11.8906 8.47141 11.5205 8.32507C11.1533 8.17953 10.7451 8.10577 10.3086 8.10577C10.1377 8.10577 9.97168 8.17606 9.65234 8.38437C9.45508 8.51276 9.22461 8.66129 8.96777 8.82553C8.74805 8.96561 8.4502 9.09683 8.08203 9.21564C7.72363 9.33176 7.35938 9.39062 7 9.39062C6.63965 9.39062 6.27539 9.33176 5.91699 9.21564C5.54883 9.09695 5.25098 8.96573 5.03223 8.82565C4.77734 8.66293 4.54688 8.51443 4.34668 8.38425C4.02734 8.17593 3.86133 8.10565 3.69043 8.10565C3.25391 8.10565 2.84668 8.17953 2.47852 8.32523C2.10938 8.47128 1.79004 8.67191 1.5293 8.92169C1.2793 9.16031 1.05762 9.45004 0.868164 9.78278C0.686523 10.1035 0.539062 10.438 0.429688 10.7771C0.325195 11.105 0.237305 11.4636 0.169922 11.8431C0.101562 12.2192 0.0566406 12.576 0.0332031 12.9037C0.0117188 13.2249 0 13.5581 0 13.8947C0 14.7706 0.27832 15.4797 0.827148 16.0027C1.37012 16.5188 2.08789 16.7806 2.95996 16.7806L11.04 16.7806C11.9121 16.7806 12.6299 16.5189 13.1719 16.0027C13.7217 15.4801 14 14.7709 14 13.8945C14 13.5564 13.9883 13.2229 13.9658 12.9034Z" fill="#FFFFFF" fill-opacity="1.000000" fill-rule="nonzero"/>
</svg>
