<svg width="1098.915283" height="637.425415" viewBox="0 0 1098.92 637.425" fill="none" xmlns="http://www.w3.org/2000/svg" xmlns:xlink="http://www.w3.org/1999/xlink">
	<desc>
			Created with Pixso.
	</desc>
	<defs/>
	<path id="XMLID 38" d="M4.83588 631.47C3.61792 631.4 3.06445 630.14 3.05963 627.921C3.01654 607.928 47.5098 510.066 51.919 503.034C86.6034 447.935 134.857 396.264 184.456 345.537C204.492 325.046 225.17 298.724 219.25 274.194C213.182 249.076 173.165 235.857 139.652 224.068C95.4017 208.496 71.1473 199.871 94.5536 168.403C96.3146 166.044 104.411 158.01 114.113 148.384L114.113 148.384C132.69 129.95 157.153 105.676 154.286 104.23C145.252 99.6295 88.6031 141.543 83.8333 145.72C62.8723 164.049 34.4145 191.44 58.2955 212.605C82.61 234.165 122.462 241.568 152.311 258.608C181.859 275.465 158.498 305.692 143.473 325.131C142.625 326.228 141.804 327.291 141.02 328.315C104.131 376.52 71.9923 427.953 44.4975 478.387C37.7763 490.702 -7.20825 607.628 1.06891 628.347C1.83899 630.275 3.07007 631.37 4.83588 631.47ZM2.05902 620.581Q2.89886 616.755 4.44617 611.628Q9.18762 595.919 20.1176 569.163Q28.8381 547.816 38.9596 525.474Q47.9993 505.52 50.2245 501.971Q73.9133 464.34 111.081 421.338Q138.042 390.146 183.025 344.138Q223.968 302.268 217.306 274.663Q213.63 259.447 190.322 246.715Q176.265 239.036 142.487 227.183Q140.149 226.363 138.988 225.954Q118.123 218.612 109.857 215.064Q96.4731 209.319 90.3718 203.663Q85.9646 199.578 84.4694 194.615Q81.0375 183.223 92.9489 167.209Q94.8007 164.729 112.704 146.964Q132.729 127.094 140.787 118.563Q147.286 111.683 150.26 107.909Q151.258 106.643 151.839 105.758Q144.954 106.034 118.558 123.355Q94.0247 139.454 85.1508 147.224L85.1498 147.225Q63.2858 166.344 55.9841 179.093Q49.6819 190.096 51.8501 199.049Q53.4448 205.633 59.6221 211.108Q69.1268 219.536 84.5077 227.006Q93.8176 231.527 113.943 239.357Q141.202 249.963 153.302 256.871Q163.646 262.772 166.965 271.382Q170.317 280.076 166.504 291.533Q162.372 303.949 145.055 326.354Q143.388 328.512 142.609 329.53Q91.5591 396.24 46.2535 479.344Q43.0582 485.199 34.1522 508.532Q23.955 535.248 16.038 560.14Q6.16089 591.195 3.22186 609.267Q2.13092 615.975 2.05902 620.581Z" fill="#FFFFFF" fill-opacity="1.000000" fill-rule="evenodd"/>
	<path id="XMLID 37" d="M115.771 39.3022C117.015 38.7646 117.682 36.2641 118.393 33.5678C119.105 30.8716 119.861 28.0231 121.283 26.7896C125.155 23.4356 128.581 22.1696 132.175 22.0585C135.694 21.9498 139.395 22.9281 143.816 24.0964L144.096 24.1705C148.923 25.4381 152.961 27.6812 157.109 29.8379C161.256 31.9945 165.534 34.1083 170.82 35.1171C175.975 36.1034 180.57 36.1067 185.144 35.8704C186.562 35.8039 187.977 35.7144 189.407 35.624C192.591 35.4227 195.844 35.2169 199.345 35.2511C207.01 35.3365 215.87 35.8639 222.846 38.428C229.821 40.992 234.913 45.6145 235.02 53.9333C235.143 63.3845 228.961 66.9655 221.717 69.6043C214.473 72.2432 206.19 73.8964 202.174 79.4926C201.823 79.9697 211.56 87.2524 221.798 94.7119C232.057 102.172 242.837 109.83 244.595 111.037C254.357 117.689 264.54 123.123 275.47 127.342C286.379 131.56 298.012 134.564 310.632 136.353C310.994 136.404 311.353 136.454 311.71 136.505C322.967 138.092 332.235 139.4 344.486 137.757C351.372 136.836 364.011 135.011 375.136 127.429C380.098 124.059 384.149 119.922 387.258 116.781C391.356 112.633 394.126 109.176 395.916 106.942C395.933 106.921 395.95 106.9 395.967 106.879C396.37 106.376 396.722 105.937 397.028 105.567C397.822 104.608 398.303 104.12 398.541 104.213C398.789 104.314 398.708 105.04 398.333 106.211C398.175 106.702 397.966 107.271 397.707 107.905C396.421 111.062 393.914 115.822 390.504 120.523C388.464 123.32 384.141 129.285 377.189 134.408C364.486 143.746 349.451 145.558 337.075 147.036C319.055 149.203 304.038 147.64 294.574 146.151C276.102 143.285 257.96 139.767 220.95 118.421C198.07 105.231 175.918 90.4765 151.623 81.3506C141.562 77.572 111.199 66.9975 85.3371 53.6603C59.4753 40.3232 38.0925 24.2231 45.9692 9.39349C54.9239 -7.47717 67.7634 1.97818 80.6722 14.6785C82.7637 16.7396 84.8576 18.8851 86.9375 21.0162C97.6733 32.0165 108.036 42.6347 115.771 39.3022ZM392.014 114.646Q390.582 117.01 388.885 119.348L388.837 119.415Q382.649 127.901 376.002 132.798Q367.908 138.748 356.503 141.735Q349.713 143.513 336.837 145.051L336.749 145.061Q316.164 147.523 294.885 144.175Q277.612 141.495 265.359 137.323Q246.723 130.977 221.949 116.688Q216.827 113.735 206.653 107.67Q171.339 86.6202 152.326 79.4783Q151.016 78.9861 147.437 77.6724Q108.657 63.4362 86.2538 51.8828Q64.4391 40.6328 54.4109 30.6679Q45.3458 21.66 46.456 14.158Q46.7468 12.1931 47.7355 10.3317Q51.2738 3.6655 56.0873 2.56198Q58.5056 2.0076 61.2457 2.85715Q67.903 4.92126 79.2696 16.1042Q81.3458 18.1503 85.5062 22.4131Q96.2623 33.4342 101.293 37.1436Q109.638 43.298 115.575 41.4998Q116.077 41.3478 116.562 41.139Q118.708 40.2115 120.327 34.0782Q121.632 29.1346 122.593 28.3005Q127.205 24.3061 132.004 24.0669Q132.12 24.0612 132.236 24.0576Q135.465 23.9578 143.305 26.03L143.585 26.1042Q147.744 27.1961 155.016 31.0016Q155.794 31.4083 156.186 31.6123Q164.534 35.9536 170.445 37.0816Q176.828 38.3027 185.247 37.8677Q186.672 37.8009 189.533 37.62Q195.898 37.2176 199.326 37.251Q214.3 37.4178 222.156 40.3052Q228.877 42.7759 231.441 47.5022Q232.974 50.3275 233.021 53.959Q233.076 58.2644 231.109 61.225Q230.511 62.125 229.726 62.9008Q227.068 65.5266 221.033 67.7252Q219.622 68.2389 216.69 69.2004Q204.147 73.3127 200.549 78.3266Q200.312 78.6493 200.235 79.0063Q199.92 80.4834 202.36 82.5494Q203.862 83.821 206.799 86.0713Q211.729 89.8499 220.62 96.3283Q237.184 108.372 243.462 112.686Q258.514 122.94 274.75 129.208Q291.398 135.646 310.352 138.333Q310.775 138.393 311.431 138.485Q332.229 141.419 344.751 139.739Q364.498 137.1 376.263 129.081Q381.254 125.691 388.436 118.434L388.68 118.188Q390.312 116.536 392.014 114.646Z" fill="#FFFFFF" fill-opacity="1.000000" fill-rule="evenodd"/>
	<path id="XMLID 33" d="M460.961 301.665C460.371 302.054 458.311 304.525 454.802 309.057C451.293 313.611 446.841 319.313 441.469 326.165C436.097 333.017 429.936 340.648 423.009 349.059C416.082 357.47 408.851 365.771 401.337 373.983C393.823 382.195 386.268 389.927 378.651 397.159C371.055 404.39 363.838 410.23 357.019 414.657C353.107 417.358 350.444 418.454 348.988 417.967C347.532 417.48 347.415 414.997 348.593 410.539C349.995 405.103 352.25 398.909 355.401 391.936C358.532 384.985 362.077 377.819 365.993 370.458C369.931 363.12 374.044 355.608 378.353 347.966C382.663 340.325 386.644 333.117 390.274 326.343C393.904 319.569 397.095 313.38 399.848 307.755C402.6 302.131 404.368 297.48 405.172 293.805C405.353 292.456 405.319 290.757 405.047 288.708C404.775 286.682 404.045 284.74 402.901 282.883C401.757 281.047 400.046 279.383 397.833 277.912C395.62 276.441 392.75 275.707 389.266 275.688C388.504 275.683 387.089 275.567 384.978 275.316C382.954 275.109 380.513 275.444 377.7 276.299C374.886 277.155 371.807 278.793 368.505 281.192C365.204 283.613 361.96 287.537 358.838 292.942C357.674 294.699 356.158 297.217 354.289 300.495C352.753 303.207 351.053 306.302 349.188 309.79C348.785 310.545 348.374 311.318 347.955 312.11C347.657 311.299 347.328 310.497 346.967 309.704C345.687 306.893 344.002 304.196 341.893 301.603C339.189 298.278 335.763 295.603 331.594 293.533C327.424 291.486 322.554 290.152 316.917 289.534C311.302 288.915 304.899 289.272 297.705 290.583C286.044 292.653 275.441 296.341 265.896 301.624C256.352 306.906 247.738 313.174 240.034 320.405C232.307 327.636 225.579 335.46 219.807 343.878C214.034 352.295 209.24 360.827 205.404 369.429C201.59 378.053 198.67 386.377 196.688 394.423C194.706 402.469 193.687 409.606 193.653 415.812C193.629 420.276 194.323 424.743 195.758 429.215C197.192 433.687 199.5 437.728 202.681 441.339C205.863 444.949 209.963 447.824 215.003 449.985C220.043 452.147 226.047 453.16 233.038 453.002C237.503 452.852 242.888 451.575 249.216 449.17C255.544 446.766 262.05 443.797 268.776 440.24C275.481 436.684 281.97 432.648 288.201 428.109C293.226 424.448 297.628 420.827 301.395 417.233C302.298 416.371 303.166 415.51 303.996 414.651C303.721 415.864 303.466 417.061 303.232 418.241C302.458 422.136 301.906 425.845 301.586 429.336C301.169 433.906 301.343 437.936 302.108 441.424C302.873 444.934 304.251 447.751 306.286 449.896C308.299 452.041 311.057 453.406 314.56 454.013C319.021 454.625 323.573 454.411 328.239 453.369C332.904 452.306 337.289 450.893 341.371 449.064C345.453 447.257 349.013 445.339 352.029 443.308C355.045 441.299 357.339 439.81 358.891 438.838C368.053 431.898 377.132 424.043 386.108 415.251C395.084 406.481 403.626 397.448 411.733 388.172C419.819 378.896 427.403 369.814 434.442 360.924C441.48 352.035 447.622 343.924 452.91 336.571C458.198 329.218 462.39 323.078 465.531 318.153C468.672 313.227 470.518 310.166 471.112 309.016C471.906 307.256 471.957 305.797 471.288 304.64C470.598 303.482 469.645 302.54 468.386 301.858C467.126 301.176 465.778 300.821 464.319 300.813C462.86 300.805 461.748 301.082 460.961 301.665ZM403.2 293.459Q403.424 291.679 403.065 288.974Q402.719 286.401 401.204 283.941Q399.729 281.573 396.726 279.578Q393.921 277.713 389.255 277.688Q387.924 277.68 384.774 277.305Q382.149 277.037 378.281 278.213Q374.371 279.402 369.688 282.805Q365.029 286.222 360.57 293.942L360.54 293.995L360.506 294.046Q358.797 296.627 356.03 301.481Q353.154 306.557 349.723 313.045L347.623 317.016L346.077 312.799Q344.154 307.553 340.341 302.865Q336.582 298.242 330.712 295.329Q324.763 292.407 316.698 291.522Q308.604 290.63 298.055 292.552Q280.92 295.594 266.865 303.373Q254.277 310.341 243.797 319.674Q242.584 320.754 241.4 321.866Q230.031 332.506 221.456 345.009Q212.958 357.399 207.233 370.238Q201.528 383.138 198.63 394.901Q195.703 406.786 195.653 415.823Q195.651 416.306 195.66 416.789Q195.772 422.714 197.662 428.604Q198.363 430.788 199.359 432.828Q201.242 436.68 204.182 440.016Q208.647 445.083 215.791 448.147Q222.975 451.228 232.971 451.003Q239.324 450.79 248.506 447.301Q257.878 443.74 267.839 438.474Q277.906 433.134 287.023 426.492Q296.302 419.733 302.558 413.261L307.526 408.121L305.947 415.093Q304.188 422.853 303.578 429.518Q302.98 436.066 304.062 440.998Q305.094 445.733 307.744 448.527Q310.285 451.234 314.867 452.036Q314.96 452.049 315.054 452.061Q321.276 452.874 327.794 451.419Q334.77 449.829 340.561 447.235Q346.555 444.582 350.92 441.643Q355.229 438.774 357.753 437.191Q371.456 426.804 384.711 413.821Q398.054 400.784 410.226 386.858Q422.562 372.707 432.874 359.683Q443.248 346.58 451.286 335.403Q458.993 324.687 463.845 317.077Q468.279 310.122 469.31 308.146Q470.046 306.488 469.571 305.664Q469.197 305.037 468.693 304.542Q468.141 304 467.433 303.617Q466.647 303.191 465.806 302.991Q465.077 302.817 464.308 302.813Q462.783 302.804 462.152 303.272L462.108 303.305L462.061 303.335Q461.449 303.739 456.379 310.287L443.043 327.399Q435.188 337.417 424.553 350.331Q414.318 362.759 402.812 375.333Q391.346 387.865 380.03 398.607Q368.503 409.582 358.132 416.319Q351.476 420.908 348.354 419.863Q347.698 419.644 347.213 419.226Q344.782 417.13 346.656 410.04Q348.824 401.631 353.578 391.115Q358.211 380.826 364.23 369.513Q370.601 357.64 376.611 346.984Q383.284 335.153 388.511 325.398Q393.999 315.156 398.051 306.876Q402.024 298.759 403.2 293.459ZM256.058 430.409Q261.374 430.121 269.482 426.377L269.485 426.376Q277.364 422.722 285.9 416.343Q294.323 410.048 302.382 401.647Q310.464 393.221 316.157 383.442L316.23 383.317L316.284 383.182Q320.903 371.682 325.841 360.892Q330.666 350.285 335.985 339.136L336.089 338.918L336.138 338.682Q338.05 329.49 336.458 324.041Q334.857 318.561 331.743 315.56Q329.551 313.475 326.942 312.408Q325.777 311.932 324.53 311.659Q320.872 310.886 318.642 310.865Q312.766 310.529 304.939 315.628Q297.557 320.436 289.117 328.75Q280.877 336.901 272.539 347.488Q264.324 357.918 257.438 369.133Q250.571 380.349 245.85 390.995Q241.008 401.838 239.91 410.286Q238.762 419.142 242.162 424.707Q242.781 425.71 243.582 426.537Q247.557 430.64 256.004 430.411L256.031 430.41L256.058 430.409ZM318.575 312.864C315.092 312.649 310.904 314.129 306.03 317.303C301.157 320.478 295.994 324.783 290.521 330.175C285.048 335.589 279.592 341.765 274.11 348.725C268.628 355.685 263.646 362.844 259.142 370.18C254.638 377.537 250.809 384.745 247.679 391.805C244.526 398.865 242.598 405.126 241.893 410.544C241.188 415.984 241.84 420.343 243.868 423.664C245.919 426.985 249.939 428.575 255.95 428.412C259.239 428.234 263.47 426.95 268.644 424.561C273.796 422.172 279.149 418.892 284.703 414.741C290.256 410.591 295.661 405.764 300.939 400.262C306.217 394.76 310.713 388.818 314.428 382.436C317.386 375.07 320.563 367.619 324.023 360.06C327.461 352.501 330.854 345.246 334.18 338.274C335.388 332.467 335.5 327.895 334.538 324.601C333.576 321.308 332.196 318.775 330.355 317.001C328.514 315.249 326.451 314.127 324.102 313.613C321.775 313.121 319.925 312.872 318.575 312.864Z" fill="#FFFFFF" fill-opacity="1.000000" fill-rule="evenodd"/>
	<path id="XMLID 30" d="M481.067 329.611C490.737 310.555 500.319 292.661 509.814 275.889C519.62 258.588 528.741 243.242 537.154 229.896C538.516 227.574 539.314 225.008 539.526 222.201C539.737 219.393 539.25 216.82 538.109 214.484C536.946 212.148 535.258 210.244 533.045 208.773C530.81 207.302 528.135 206.656 525.042 206.835C522.906 207.215 519.984 207.983 516.297 209.139C512.611 210.295 508.682 211.972 504.489 214.17C500.296 216.39 496.252 219.177 492.358 222.553C488.464 225.928 485.241 229.939 482.689 234.585C481.722 236.322 479.765 239.795 476.818 245.027C473.872 250.259 470.243 256.75 465.933 264.479C461.623 272.229 456.762 281.087 451.373 291.052C445.983 301.018 440.329 311.701 434.452 323.122C429.406 322.137 425.295 321.243 422.098 320.442C418.902 319.662 417.118 319.261 416.726 319.258C414.396 319.246 411.624 320.537 408.409 323.133C405.193 325.728 402.412 328.565 400.065 331.667C397.719 334.746 396.353 337.613 395.947 340.224C395.541 342.834 396.905 344.257 399.996 344.47C404.827 344.889 410.641 348.883 417.394 356.498C409.139 372.763 400.991 389.551 392.948 406.884C384.905 424.217 377.387 441.291 370.392 458.151Q359.932 483.408 352.228 506.524C347.092 521.935 343.335 535.938 340.937 548.533C338.939 559.388 338.404 569.663 339.309 579.38C340.236 589.096 342.432 597.732 345.874 605.328C349.339 612.925 353.965 619.156 359.752 624.044C365.54 628.91 372.317 631.973 380.084 633.17C382.608 633.576 386.157 633.639 390.709 633.38C395.284 633.101 400.364 631.865 406.016 629.675C411.668 627.463 417.61 623.903 423.843 618.994C430.076 614.063 436.146 607.106 442.009 598.123C447.872 589.14 453.27 577.607 458.203 563.567C463.135 549.526 467.105 532.411 470.133 512.241C472.147 498.294 473.093 484.603 472.97 471.21C472.847 457.818 472.133 445.097 470.848 433.048C469.564 421.021 467.817 409.949 465.651 399.834C463.464 389.74 461.421 380.996 459.523 373.604C461.087 370.303 462.607 367.067 464.084 363.874C465.56 360.681 467.059 357.444 468.644 354.143C474.648 355.352 481.74 356.501 489.878 357.613C498.038 358.746 506.701 359.468 515.932 359.802C525.163 360.135 534.484 359.859 543.896 358.931C553.308 358.024 562.16 356.069 570.429 353.109C578.698 350.149 586.146 346.009 592.773 340.71C599.4 335.412 604.468 328.493 608.02 319.976C609.213 316.891 609.271 314.169 608.217 311.833C607.163 309.498 605.56 307.878 603.431 306.995C601.28 306.112 598.906 306.252 596.286 307.391C593.645 308.531 591.455 310.958 589.693 314.628C586.74 321.014 581.487 325.798 573.892 328.957C566.297 332.117 557.402 334.159 547.206 335.061C537.01 335.964 526.035 336.013 514.302 335.165C503.308 334.391 492.603 333.255 482.203 331.793C481.505 331.695 480.809 331.595 480.113 331.494C480.431 330.865 480.749 330.237 481.067 329.611ZM606.164 319.231Q607.564 315.59 606.507 312.923Q606.454 312.789 606.394 312.656Q605.454 310.573 603.842 309.476Q603.296 309.104 602.672 308.845Q602.45 308.754 602.222 308.683Q599.957 307.975 597.079 309.228Q593.831 310.629 591.508 315.468Q590.357 317.957 588.78 320.138Q583.824 326.992 574.661 330.804Q562.95 335.676 547.382 337.054Q531.788 338.434 514.162 337.16Q496.761 335.934 479.826 333.473L477.073 333.073L478.328 330.591Q493.238 301.111 508.074 274.903Q522.819 248.887 535.444 228.858Q536.011 227.887 536.427 226.857Q537.339 224.599 537.531 222.05Q537.74 219.281 536.926 216.855Q536.672 216.099 536.318 215.376Q535.683 214.1 534.805 213.022Q533.603 211.547 531.945 210.444Q531.941 210.441 531.937 210.439Q531.698 210.282 531.45 210.14Q528.842 208.645 525.274 208.825Q522.187 209.389 516.896 211.047Q511.565 212.719 505.425 215.938Q499.305 219.178 493.668 224.064Q492.306 225.245 491.057 226.536Q487.201 230.525 484.433 235.565L478.563 246.004L467.687 265.44L453.132 292.004Q444.495 307.975 436.231 324.037L435.543 325.373L434.069 325.085Q426.495 323.606 421.624 322.385Q417.012 321.26 416.715 321.258Q413.933 321.243 409.665 324.689Q405.012 328.445 401.656 332.879Q398.461 337.071 397.923 340.531Q397.77 341.513 398.106 341.865Q398.587 342.368 400.168 342.478Q408.255 343.178 418.89 355.171L419.793 356.19L419.177 357.403Q406.754 381.882 394.762 407.726Q382.632 433.867 372.239 458.916Q361.807 484.108 354.125 507.156Q346.489 530.069 342.904 548.895Q339.966 564.862 341.3 579.19Q342.653 593.375 347.694 604.498Q352.653 615.372 360.895 622.391Q360.967 622.452 361.039 622.513Q364.289 625.245 367.962 627.169Q373.67 630.158 380.402 631.195Q383.927 631.762 390.587 631.384Q397.099 630.986 405.287 627.813Q413.489 624.603 422.602 617.425Q431.741 610.195 440.334 597.03Q448.981 583.782 456.316 562.904Q463.63 542.084 468.153 511.956Q471.153 491.184 470.97 471.229Q470.788 451.348 468.86 433.26Q466.966 415.526 463.697 400.257Q460.423 385.152 457.586 374.102L457.407 373.406L462.268 363.034Q465.197 356.7 466.842 353.277L467.515 351.876L469.039 352.183Q477.77 353.94 490.154 355.632Q502.196 357.304 516.004 357.803Q522.26 358.029 528.506 357.876Q536.112 357.689 543.704 356.94Q557.506 355.611 569.755 351.226Q579.19 347.849 587.181 342.368Q589.409 340.84 591.524 339.148Q592.733 338.181 593.872 337.137Q601.672 329.988 606.164 319.231ZM455.212 506.568Q458.305 477.481 455.22 452.242Q452.142 427.055 445.479 406.394L443.894 401.479L441.755 406.18Q430.109 431.773 419.772 456.192Q409.415 480.583 401.142 503.353Q393.024 525.697 387.482 544.911Q381.971 564.02 379.969 578.334Q377.951 592.767 380.172 601.511Q381.671 607.322 385.414 610.021Q387.866 611.789 391.281 612.222Q403.24 613.606 412.206 609.071Q415.914 607.196 419.11 604.309Q429.636 594.798 436.488 578.816Q443.173 563.19 447.418 543.871L455.202 506.668L455.212 506.568ZM453.224 506.357C455.267 487.14 455.278 469.197 453.235 452.484C451.334 436.932 448.408 422.732 444.473 409.866C444.179 408.906 443.88 407.953 443.575 407.008C443.162 407.916 442.75 408.824 442.339 409.73C435.118 425.656 428.209 441.391 421.614 456.972C414.621 473.439 408.438 489.127 403.022 504.036C397.606 518.944 393.066 532.769 389.404 545.466C385.742 558.162 383.264 569.211 381.95 578.611C380.636 588.011 380.704 595.48 382.111 601.019C383.539 606.557 386.68 609.623 391.533 610.238C402.196 611.472 410.941 608.993 417.769 602.825C424.597 596.656 430.216 588.368 434.65 578.027C439.083 567.665 442.674 556.143 445.465 543.442C448.235 530.74 450.828 518.364 453.224 506.357Z" fill="#FFFFFF" fill-opacity="1.000000" fill-rule="evenodd"/>
	<path id="XMLID 26" d="M794.334 303.486C793.744 303.874 791.683 306.346 788.174 310.878C784.665 315.431 780.214 321.134 774.842 327.986C769.469 334.837 763.309 342.469 756.382 350.88C749.455 359.291 742.223 367.591 734.709 375.803C727.196 384.015 719.641 391.748 712.023 398.979C704.428 406.211 697.21 412.051 690.392 416.477C686.479 419.178 683.817 420.274 682.36 419.787C680.904 419.3 680.787 416.817 681.966 412.359C683.367 406.923 685.622 400.729 688.774 393.757C691.904 386.806 695.449 379.639 699.365 372.279C703.303 364.94 707.416 357.428 711.726 349.787C716.036 342.145 720.016 334.937 723.646 328.163C727.276 321.389 730.468 315.201 733.22 309.576C735.973 303.951 737.74 299.301 738.544 295.625C738.726 294.276 738.692 292.577 738.42 290.529C738.148 288.502 737.418 286.56 736.274 284.703C735.13 282.868 733.419 281.203 731.206 279.732C728.993 278.261 726.122 277.527 722.638 277.508C721.876 277.504 720.461 277.387 718.35 277.136C716.326 276.929 713.886 277.264 711.072 278.12C708.258 278.976 705.179 280.614 701.878 283.013C698.577 285.434 695.332 289.357 692.211 294.762C691.047 296.52 689.531 299.037 687.662 302.315C686.126 305.028 684.425 308.122 682.561 311.61C682.157 312.365 681.746 313.138 681.327 313.931C681.03 313.119 680.701 312.318 680.34 311.525C679.059 308.714 677.375 306.017 675.266 303.423C672.562 300.099 669.136 297.424 664.966 295.354C660.797 293.306 655.926 291.973 650.29 291.354C644.675 290.736 638.271 291.092 631.078 292.403C619.417 294.474 608.814 298.161 599.269 303.444C589.724 308.727 581.11 314.995 573.406 322.226C565.68 329.456 558.952 337.281 553.179 345.698C547.406 354.115 542.612 362.647 538.777 371.249C534.962 379.873 532.042 388.197 530.061 396.243C528.079 404.29 527.06 411.426 527.026 417.632C527.001 422.096 527.696 426.564 529.13 431.036C530.565 435.507 532.873 439.549 536.054 443.159C539.235 446.769 543.335 449.644 548.375 451.806C553.415 453.967 559.42 454.98 566.411 454.822C570.875 454.672 576.261 453.395 582.589 450.991C588.917 448.587 595.422 445.617 602.149 442.061C608.853 438.504 615.342 434.468 621.573 429.929C626.598 426.269 631 422.647 634.767 419.053C635.671 418.191 636.538 417.33 637.369 416.471C637.094 417.684 636.839 418.881 636.604 420.061C635.83 423.957 635.278 427.665 634.958 431.156C634.542 435.727 634.716 439.756 635.48 443.245C636.245 446.755 637.623 449.571 639.659 451.716C641.672 453.861 644.43 455.226 647.933 455.833C652.393 456.446 656.945 456.231 661.611 455.19C666.277 454.126 670.661 452.713 674.744 450.884C678.825 449.078 682.385 447.159 685.401 445.128C688.417 443.12 690.712 441.63 692.263 440.658C701.425 433.719 710.505 425.864 719.481 417.072C728.457 408.302 736.998 399.268 745.106 389.992C753.192 380.717 760.776 371.634 767.814 362.745C774.853 353.855 780.994 345.744 786.282 338.391C791.57 331.038 795.763 324.899 798.904 319.973C802.044 315.047 803.89 311.987 804.485 310.836C805.278 309.076 805.33 307.618 804.661 306.46C803.97 305.302 803.017 304.361 801.758 303.679C800.499 302.997 799.151 302.641 797.692 302.633C796.233 302.625 795.121 302.902 794.334 303.486ZM802.683 309.966Q803.419 308.308 802.943 307.484Q802.569 306.857 802.065 306.362Q801.513 305.821 800.806 305.437Q800.019 305.011 799.178 304.811Q798.45 304.637 797.681 304.633Q796.156 304.625 795.525 305.092L795.481 305.125L795.434 305.156Q794.821 305.559 789.752 312.107L776.415 329.22Q768.561 339.237 757.925 352.151Q747.69 364.579 736.185 377.153Q724.719 389.685 713.403 400.428Q701.876 411.402 691.505 418.139Q684.849 422.728 681.726 421.684Q681.07 421.464 680.586 421.047Q678.154 418.951 680.029 411.86Q682.197 403.451 686.95 392.936Q691.584 382.646 697.603 371.333Q703.972 359.464 709.984 348.804Q716.655 336.977 721.883 327.219Q727.372 316.977 731.424 308.697Q735.396 300.579 736.572 295.28Q736.796 293.499 736.437 290.795Q736.092 288.221 734.577 285.761Q733.101 283.394 730.098 281.398Q727.294 279.533 722.627 279.508Q721.297 279.501 718.147 279.126Q715.521 278.857 711.654 280.033Q707.743 281.223 703.061 284.626Q698.401 288.042 693.943 295.763L693.912 295.815L693.878 295.866Q692.169 298.448 689.402 303.301Q686.526 308.378 683.095 314.866L680.995 318.836L679.449 314.619Q677.526 309.373 673.714 304.685Q669.955 300.063 664.085 297.149Q658.136 294.227 650.071 293.342Q641.976 292.45 631.428 294.372Q614.292 297.415 600.238 305.194Q587.647 312.162 577.166 321.498Q575.955 322.576 574.773 323.686Q563.404 334.326 554.828 346.829Q546.331 359.22 540.606 372.058Q534.9 384.959 532.003 396.722Q529.075 408.606 529.026 417.643Q529.023 418.126 529.032 418.609Q529.145 424.534 531.035 430.425Q531.735 432.609 532.732 434.649Q534.615 438.501 537.555 441.837Q542.019 446.904 549.164 449.968Q556.348 453.049 566.344 452.823Q572.696 452.61 581.879 449.121Q591.25 445.56 601.211 440.294Q611.278 434.954 620.396 428.312Q629.674 421.554 635.931 415.081L640.899 409.941L639.319 416.913Q637.561 424.674 636.95 431.338Q636.353 437.886 637.435 442.819Q638.466 447.553 641.117 450.347Q643.657 453.054 648.24 453.857Q648.333 453.87 648.427 453.882Q654.649 454.695 661.167 453.24Q668.143 451.65 673.934 449.056Q679.928 446.402 684.293 443.464Q688.602 440.594 691.126 439.011Q704.828 428.624 718.083 415.641Q731.426 402.604 743.598 388.678Q755.934 374.527 766.246 361.503Q776.621 348.4 784.658 337.224Q792.365 326.508 797.217 318.898Q801.652 311.942 802.683 309.966ZM589.43 432.229Q594.746 431.941 602.855 428.198L602.858 428.196Q610.737 424.543 619.272 418.164Q627.696 411.868 635.755 403.467Q643.837 395.042 649.529 385.263L649.602 385.137L649.657 385.002Q654.275 373.503 659.214 362.713Q664.039 352.104 669.358 340.956L669.462 340.738L669.511 340.502Q671.422 331.311 669.83 325.861Q668.23 320.381 665.115 317.381Q662.923 315.294 660.313 314.228Q659.149 313.752 657.902 313.48Q654.244 312.707 652.015 312.685Q646.139 312.349 638.311 317.448Q630.93 322.256 622.49 330.571Q614.249 338.722 605.911 349.308Q597.696 359.738 590.81 370.953Q583.944 382.169 579.223 392.815Q574.381 403.659 573.282 412.107Q572.135 420.963 575.534 426.527Q576.154 427.53 576.955 428.357Q580.929 432.461 589.376 432.231L589.404 432.231L589.43 432.229ZM651.948 314.685C648.465 314.47 644.276 315.949 639.403 319.124C634.529 322.298 629.367 326.603 623.894 331.995C618.42 337.409 612.964 343.586 607.482 350.546C602.001 357.506 597.018 364.664 592.514 372C588.01 379.357 584.182 386.566 581.051 393.626C577.899 400.686 575.97 406.946 575.266 412.365C574.561 417.805 575.212 422.163 577.241 425.484C579.291 428.805 583.311 430.395 589.322 430.232C592.611 430.054 596.843 428.771 602.016 426.382C607.169 423.993 612.521 420.712 618.075 416.562C623.629 412.411 629.034 407.585 634.312 402.082C639.589 396.58 644.086 390.638 647.801 384.257C650.759 376.891 653.935 369.439 657.395 361.88C660.834 354.321 664.227 347.067 667.553 340.095C668.76 334.287 668.872 329.715 667.911 326.422C666.949 323.128 665.569 320.595 663.728 318.821C661.886 317.069 659.824 315.947 657.475 315.434C655.148 314.942 653.298 314.692 651.948 314.685Z" fill="#FFFFFF" fill-opacity="1.000000" fill-rule="evenodd"/>
	<path id="XMLID 10" d="M797.316 303.829C799.674 298.79 801.942 294.055 804.101 289.603C805.668 285.735 807.192 281.846 808.672 277.978C810.152 274.088 810.887 271.087 810.898 268.953C810.923 264.489 809.634 261.281 807.031 259.329C804.429 257.377 801.08 256.488 797.008 256.661C792.347 256.832 788.309 258.465 784.808 261.56C781.394 264.633 778.522 268.254 776.169 272.422C773.817 276.59 772.095 280.892 771.003 285.35C769.912 289.808 769.456 293.486 769.636 296.405C769.781 305.725 771.791 312.617 775.642 317.102C779.494 321.587 784.007 324.53 789.139 325.908C794.27 327.286 799.429 327.619 804.572 326.863C809.715 326.107 813.749 325.15 816.673 324.011C819.4 323.068 821.577 323.276 823.224 324.635C824.872 326.016 824.621 328.04 822.472 330.75C821.88 331.531 820.453 333.7 818.212 337.281C815.95 340.862 813.246 345.463 810.123 351.064C807.001 356.687 803.743 363.028 800.417 370.087C797.09 377.146 794.176 384.359 791.719 391.728C789.262 399.096 787.414 406.446 786.22 413.822C785.025 421.197 784.988 427.991 786.108 434.203C787.25 440.415 789.878 445.764 794.034 450.251C798.191 454.738 804.226 457.972 812.185 459.953C820.515 461.937 829.205 461.549 838.257 458.789C847.287 456.008 856.391 451.702 865.547 445.829C874.703 439.956 883.779 432.863 892.752 424.572C901.725 416.281 910.265 407.596 918.372 398.516C926.478 389.437 934.04 380.419 941.079 371.421C948.118 362.423 954.173 354.268 959.265 346.914C964.357 339.56 968.419 333.42 971.451 328.493C974.505 323.545 976.11 320.614 976.312 319.635C976.919 316.154 976.585 313.431 975.333 311.486C974.08 309.541 972.454 308.247 970.41 307.67C968.367 307.093 966.341 307.125 964.291 307.789C962.262 308.475 960.752 309.773 959.762 311.706C956.043 318.871 950.903 326.9 944.344 335.792C937.806 344.706 930.571 353.682 922.661 362.763C914.75 371.843 906.579 380.727 898.192 389.413C889.783 398.099 881.837 405.721 874.332 412.278C866.805 418.834 860.244 424.047 854.583 427.892C848.944 431.759 844.95 433.479 842.622 433.074C838.357 432.463 836.174 429.446 836.117 424.002C836.06 418.558 837.206 412.009 839.578 404.357C841.95 396.705 845.152 388.426 849.186 379.521C853.198 370.614 857.228 362.231 861.256 354.392C865.284 346.553 868.848 339.866 871.992 334.352C875.114 328.838 877.07 325.495 877.86 324.346C879.221 322.415 880.171 319.938 880.667 316.935C881.162 313.933 881.047 311.08 880.278 308.354C879.509 305.649 878.062 303.355 875.938 301.493C873.815 299.63 870.705 298.786 866.632 298.959C861.382 299.323 855.085 300.159 847.696 301.469C840.328 302.801 833.136 304.003 826.14 305.14C819.144 306.278 812.912 306.875 807.49 306.933C802.046 307.012 798.654 305.97 797.316 303.829ZM802.27 288.796Q804.455 283.4 806.802 277.267Q808.883 271.799 808.898 268.942Q808.927 263.758 806.357 261.368Q806.106 261.135 805.831 260.929Q802.499 258.429 797.081 258.66Q794.061 258.77 791.4 259.804Q788.57 260.903 786.146 263.046Q786.044 263.138 785.942 263.232Q781.219 267.544 777.911 273.405Q774.513 279.425 772.946 285.826Q771.382 292.215 771.633 296.281L771.635 296.327L771.636 296.373Q771.842 309.607 777.16 315.799Q781.553 320.916 787.104 323.129Q788.352 323.626 789.657 323.976Q794.963 325.401 800.22 325.243Q802.255 325.182 804.281 324.885Q811.728 323.79 815.948 322.148L815.983 322.134L816.019 322.121Q819.758 320.828 822.546 321.933Q823.595 322.348 824.509 323.102Q825.864 324.238 826.238 325.637Q826.954 328.316 824.066 331.959Q823.131 333.191 819.903 338.349Q816.497 343.74 811.872 352.035Q807.004 360.8 802.226 370.939Q797.212 381.579 793.616 392.36Q789.932 403.407 788.194 414.141Q786.457 424.867 788.075 433.841Q789.1 439.417 791.821 443.983Q793.382 446.604 795.501 448.892Q801.337 455.191 812.649 458.008Q814.262 458.392 815.895 458.652Q826.375 460.321 837.668 456.878Q851.039 452.759 864.467 444.146Q878.05 435.433 891.395 423.103Q903.49 411.928 914.529 399.793Q915.71 398.494 916.88 397.184Q929.044 383.56 939.504 370.189Q950.062 356.691 957.62 345.775Q965.227 334.789 969.749 327.443Q974.079 320.426 974.348 319.255Q975.111 314.835 973.651 312.569Q972.46 310.719 970.773 309.931Q970.336 309.727 969.867 309.595Q968.582 309.232 967.309 309.267Q966.115 309.301 964.931 309.684Q963.847 310.05 963.026 310.734Q962.121 311.488 961.537 312.627Q955.886 323.515 945.957 336.975Q936.259 350.198 924.169 364.076Q912.472 377.503 899.629 390.804Q886.897 403.955 875.646 413.786Q864.092 423.851 855.714 429.541Q846.628 435.772 842.311 435.05Q839.146 434.59 837.203 432.801Q834.18 430.019 834.117 424.023Q834.027 415.509 837.667 403.765Q841.262 392.168 847.362 378.699Q853.363 365.378 859.477 353.478Q865.794 341.184 870.251 333.367Q875.013 324.958 876.226 323.193Q878.029 320.635 878.693 316.61Q879.371 312.505 878.354 308.901Q877.855 307.147 876.92 305.669Q875.987 304.195 874.62 302.996Q872.043 300.736 866.744 300.956Q859.02 301.493 848.051 303.437Q838.885 305.094 826.461 307.114Q815.82 308.845 807.519 308.933Q798.319 309.066 795.67 304.967Q795.645 304.928 795.62 304.889L795.038 303.958L802.27 288.796Z" fill="#FFFFFF" fill-opacity="1.000000" fill-rule="evenodd"/>
	<path id="XMLID 7" d="M988.61 252.46C990.372 248.964 992.479 245.97 994.909 243.458C997.34 240.945 999.92 239.021 1002.65 237.686C1005.38 236.351 1008.19 235.582 1011.11 235.402C1014.03 235.222 1016.73 235.716 1019.25 236.905C1021.77 238.269 1023.85 240.175 1025.49 242.623C1027.13 245.071 1028.22 247.777 1028.8 250.785C1029.37 253.793 1029.39 257.06 1028.89 260.541C1028.4 264.044 1027.25 267.522 1025.48 270.996C1023.72 274.493 1021.62 277.486 1019.19 279.999C1016.73 282.511 1014.15 284.435 1011.45 285.771C1008.72 287.106 1005.9 287.874 1002.98 288.054C1000.07 288.234 997.346 287.741 994.848 286.551C989.81 283.998 986.678 279.429 985.451 272.803C984.224 266.22 985.284 259.432 988.61 252.46ZM1018.34 238.691Q1017.54 238.315 1016.7 238.045Q1014.13 237.22 1011.23 237.398Q1010.75 237.428 1010.26 237.483Q1006.83 237.869 1003.53 239.482Q999.749 241.331 996.347 244.848Q992.878 248.434 990.416 253.321Q986.257 262.038 987.1 270.24Q987.213 271.344 987.417 272.439Q988.638 279.033 992.591 282.606Q993.989 283.87 995.73 284.756Q996.375 285.061 997.044 285.297Q999.751 286.25 1002.86 286.058Q1003.38 286.026 1003.91 285.965Q1007.3 285.571 1010.56 283.977Q1014.31 282.125 1017.75 278.608Q1021.22 275.023 1023.7 270.092Q1026.22 265.112 1026.91 260.258Q1027.62 255.32 1026.83 251.158Q1026.23 247.99 1024.76 245.29Q1024.33 244.493 1023.83 243.737Q1022.43 241.649 1020.55 240.156Q1019.52 239.333 1018.34 238.691ZM960.288 430.473C956.377 432.955 953.213 434.114 950.797 433.905C948.36 433.696 947.741 431.362 948.941 426.905C951.12 418.773 954.806 409.582 960.001 399.31C965.196 389.061 970.63 378.943 976.324 368.979C982.019 359.015 987.209 349.636 991.917 340.821C996.625 332.028 999.581 325.011 1000.76 319.769C1000.97 318.42 1000.91 316.721 1000.64 314.673C1000.37 312.625 999.638 310.639 998.494 308.695C997.329 306.75 995.596 305.086 993.274 303.723C990.951 302.361 988.059 301.561 984.555 301.346C983.792 301.341 982.378 301.247 980.332 301.061C978.308 300.854 975.867 301.189 973.053 302.045C970.24 302.901 967.16 304.582 963.858 307.09C960.557 309.598 957.334 313.457 954.192 318.687C952.038 322.356 948.651 328.456 944.054 336.967C939.434 345.478 934.591 355.163 929.48 366.001C924.369 376.839 919.494 388.158 914.879 399.978C910.241 411.799 906.937 422.69 904.945 432.675C902.952 442.659 902.754 451.106 904.371 457.996C905.966 464.908 910.365 468.852 917.546 469.871C922.202 470.484 926.864 470.205 931.53 469.076C936.196 467.947 940.516 466.468 944.511 464.639C948.505 462.832 952.043 460.913 955.168 458.883C958.293 456.875 960.544 455.385 961.9 454.413C971.062 447.473 980.708 439.534 990.861 430.552C1000.99 421.571 1010.95 412.371 1020.71 402.908C1030.48 393.446 1039.85 384.024 1048.83 374.666C1057.81 365.287 1065.71 356.794 1072.55 349.166C1079.39 341.538 1084.95 335.145 1089.25 330.03C1093.54 324.914 1095.98 321.748 1096.57 320.597C1097.36 318.838 1097.42 317.401 1096.75 316.221C1096.06 315.063 1095.1 314.122 1093.85 313.44C1092.59 312.758 1091.24 312.402 1089.78 312.394C1088.32 312.386 1087.21 312.663 1086.42 313.247C1085.85 313.636 1083.25 316.191 1078.67 320.913C1074.07 325.657 1068.27 331.635 1061.24 338.87C1054.21 346.105 1046.26 354.075 1037.37 362.758C1028.48 371.441 1019.47 380.102 1010.3 388.675C1001.12 397.27 992.153 405.278 983.38 412.699Q970.222 423.831 960.288 430.473ZM1094.77 319.723Q1095.5 318.077 1095.03 317.246Q1094.66 316.618 1094.15 316.123Q1093.6 315.582 1092.89 315.199Q1092.11 314.772 1091.27 314.572Q1090.54 314.398 1089.77 314.394Q1088.24 314.386 1087.61 314.853L1087.58 314.876L1087.55 314.898Q1086.77 315.434 1080.11 322.306L1062.67 340.264Q1051.7 351.56 1038.77 364.189Q1024.41 378.218 1011.66 390.135Q997.869 403.062 984.672 414.226Q971.427 425.431 961.4 432.135L961.38 432.148L961.36 432.161Q954.892 436.267 950.626 435.898Q948.993 435.757 947.975 434.893Q946.979 434.048 946.572 432.51Q945.971 430.244 947.009 426.387Q950.324 414.012 958.217 398.406Q966.166 382.723 974.588 367.987Q983.036 353.204 990.154 339.877Q997.073 326.955 998.796 319.403Q999.03 317.746 998.657 314.936Q998.31 312.327 996.779 309.723Q995.278 307.218 992.261 305.448Q989.184 303.643 984.484 303.345Q983.23 303.332 980.128 303.051Q977.503 302.782 973.635 303.958Q969.721 305.149 965.068 308.683Q960.41 312.221 955.917 319.7Q952.639 325.281 945.811 337.921Q939.115 350.259 931.289 366.854Q923.563 383.236 916.741 400.709Q909.867 418.229 906.906 433.066Q903.996 447.647 906.32 457.546Q907.314 461.855 909.986 464.408Q912.899 467.191 917.807 467.888Q919.122 468.061 920.444 468.134Q925.708 468.427 931.06 467.132Q937.848 465.49 943.686 462.817Q949.468 460.201 954.087 457.201Q958.811 454.165 960.713 452.803Q974.48 442.373 989.534 429.056Q1005.09 415.266 1019.32 401.472Q1033.79 387.448 1047.38 373.283Q1060.98 359.081 1071.06 347.831Q1081 336.736 1087.72 328.743Q1093.86 321.423 1094.77 319.723Z" fill="#FFFFFF" fill-opacity="1.000000" fill-rule="evenodd"/>
</svg>
