<svg width="71.409668" height="40.348999" viewBox="0 0 71.4097 40.349" fill="none" xmlns="http://www.w3.org/2000/svg" xmlns:xlink="http://www.w3.org/1999/xlink">
	<desc>
			Created with Pixso.
	</desc>
	<defs/>
	<path id="XMLID 38" d="M9.86937 6.60742C9.27889 6.31659 5.60117 9.01453 5.29173 9.28308C3.93193 10.4616 2.08668 12.2217 3.65088 13.5658C5.24347 14.9349 7.84386 15.3941 9.79556 16.4725C11.8367 17.5995 10.034 19.7005 9.08443 20.9305C6.69696 24.0236 4.62035 27.3213 2.84607 30.5535C2.37198 31.4161 -1.03747 40.2808 0.315239 40.349C-0.479637 40.3087 3.02208 32.6267 3.33861 32.1258C5.57988 28.593 8.70686 25.2745 11.9219 22.0158C13.2206 20.6996 14.5591 19.0104 14.1645 17.4451C13.76 15.8422 11.1469 15.0115 8.9581 14.2699C6.06816 13.2903 4.48408 12.7477 5.9986 10.7288C6.33075 10.2877 10.1547 6.74652 9.86937 6.60742Z" fill="#ED165F" fill-opacity="1.000000" fill-rule="nonzero"/>
	<path id="XMLID 37" d="M7.33568 2.47211C7.41659 2.43732 7.45918 2.27734 7.50459 2.1048C7.55002 1.93225 7.59828 1.75 7.69054 1.67065C7.94178 1.45502 8.16463 1.37292 8.39883 1.36456C8.63304 1.3562 8.88002 1.42023 9.17668 1.49536C9.49179 1.57465 9.7558 1.71661 10.0269 1.85297C10.298 1.98932 10.5776 2.12286 10.9226 2.18549C11.259 2.2467 11.5585 2.24536 11.8565 2.22864C12.1546 2.21332 12.4513 2.18274 12.782 2.18408C13.2817 2.18689 13.8594 2.21753 14.315 2.37891C14.7706 2.54028 15.1042 2.83392 15.1141 3.36542C15.1255 3.9693 14.7238 4.20026 14.2525 4.3714C13.7813 4.54254 13.2419 4.65106 12.9822 5.01007C12.9594 5.04065 13.5968 5.50262 14.2667 5.97571C14.9381 6.44879 15.6436 6.93439 15.7585 7.01093C16.3973 7.4325 17.063 7.77618 17.777 8.04193C18.4895 8.30768 19.2489 8.49554 20.0722 8.60547C20.8387 8.70703 21.4561 8.79608 22.2794 8.68335C22.7279 8.62213 23.5512 8.5011 24.2737 8.0127C24.5959 7.79565 24.8585 7.52991 25.06 7.32812C25.5455 6.84113 25.7428 6.50305 25.791 6.52112C25.8478 6.5434 25.6434 7.05957 25.2729 7.56604C25.1409 7.74554 24.8613 8.12817 24.4099 8.45795C23.5853 9.05902 22.6058 9.18011 21.7996 9.27887C20.6257 9.42358 19.6463 9.32898 19.0289 9.23712C17.8238 9.06042 16.64 8.84198 14.2199 7.49091C12.7238 6.65607 11.2746 5.72107 9.68767 5.14642C9.03048 4.90851 7.04754 4.24341 5.35701 3.40021C3.66647 2.55701 2.26692 1.53571 2.77507 0.585388C3.35278 -0.495728 4.19308 0.103943 5.03905 0.91095C5.88361 1.71802 6.73527 2.72955 7.33568 2.47211Z" fill="#ED165F" fill-opacity="1.000000" fill-rule="nonzero"/>
	<path id="XMLID 33" d="M25.2474 17.4812C25.4745 17.4812 25.6619 17.5272 25.8067 17.6204C25.9515 17.7136 26.0636 17.8193 26.1388 17.9362C26.2141 18.0545 26.2623 18.1783 26.2808 18.3077C26.2992 18.4385 26.3021 18.5471 26.2907 18.6333C26.2396 18.8685 26.1261 19.1662 25.9486 19.5266C25.7712 19.887 25.5654 20.2835 25.3312 20.7177C25.097 21.1517 24.8401 21.6137 24.5619 22.1035C24.2836 22.5933 24.0182 23.0746 23.7641 23.545C23.5115 24.0167 23.283 24.4758 23.0814 24.9211C22.8784 25.3677 22.7336 25.7643 22.6442 26.1121C22.569 26.3973 22.5775 26.556 22.6726 26.5866C22.7677 26.6172 22.9409 26.5462 23.195 26.3723C23.6378 26.087 24.1062 25.7114 24.5988 25.2466C25.0927 24.7819 25.5824 24.2852 26.0693 23.7579C26.5561 23.2305 27.0246 22.6976 27.4731 22.1577C27.9216 21.6179 28.3205 21.1281 28.6682 20.6884C29.016 20.2487 29.3041 19.8828 29.5313 19.5906C29.7584 19.2998 29.8918 19.1412 29.9301 19.1161C29.9812 19.0786 30.0536 19.0605 30.1487 19.0605C30.2438 19.0605 30.3318 19.0827 30.4141 19.1259C30.4965 19.169 30.5589 19.2288 30.6043 19.3026C30.6483 19.3763 30.6455 19.4695 30.5944 19.5822C30.5561 19.656 30.4368 19.8522 30.2339 20.168C30.0309 20.4839 29.7598 20.8776 29.4177 21.3493C29.0756 21.821 28.6782 22.3414 28.2225 22.9119C27.7669 23.4824 27.2758 24.0654 26.752 24.6609C26.2268 25.2564 25.6733 25.8366 25.0913 26.4001C24.5093 26.965 23.9203 27.4701 23.3255 27.9167C23.2248 27.9794 23.0757 28.0754 22.8798 28.2048C22.684 28.3356 22.4526 28.4594 22.1872 28.5763C21.9217 28.6946 21.6364 28.7864 21.3327 28.856C21.0289 28.9241 20.7323 28.9395 20.4413 28.9019C20.2127 28.8643 20.0325 28.778 19.9005 28.6417C19.767 28.5053 19.6762 28.3259 19.6251 28.1018C19.574 27.8792 19.5612 27.6218 19.5868 27.3296C19.6123 27.0388 19.6634 26.7243 19.7387 26.3904C19.4605 26.6757 19.1184 26.9636 18.7138 27.2559C18.3093 27.548 17.8877 27.8082 17.452 28.0378C17.0148 28.2674 16.5918 28.4594 16.1802 28.6152C15.7685 28.7711 15.4179 28.8546 15.127 28.8657C14.6713 28.8782 14.2796 28.8156 13.9503 28.6793C13.6209 28.5429 13.3527 28.3606 13.144 28.131C12.9354 27.9014 12.7835 27.644 12.6884 27.3588C12.5933 27.0735 12.5464 26.7883 12.5464 26.5031C12.5464 26.1066 12.6103 25.6501 12.7367 25.1353C12.863 24.6205 13.0503 24.0876 13.2959 23.5352C13.5429 22.9843 13.8523 22.4374 14.2256 21.8975C14.5989 21.3577 15.0347 20.8553 15.5358 20.3906C16.0354 19.9259 16.5946 19.5224 17.2149 19.1815C17.8352 18.8406 18.5251 18.6013 19.2844 18.465C19.7529 18.3787 20.1702 18.3536 20.5364 18.3912C20.904 18.4288 21.222 18.5123 21.4945 18.6417C21.767 18.7725 21.9913 18.9422 22.1687 19.1537C22.3461 19.3652 22.4781 19.5878 22.5676 19.8229C22.7194 19.5377 22.8557 19.29 22.9764 19.0786C23.097 18.8685 23.195 18.707 23.2702 18.5944C23.4717 18.2479 23.6818 17.996 23.8961 17.8402C24.1105 17.6857 24.3106 17.58 24.4937 17.5244C24.6768 17.4687 24.8358 17.4464 24.9678 17.459C25.1055 17.4742 25.1978 17.4812 25.2474 17.4812ZM16.6117 27.2864C16.826 27.2739 17.1014 27.1904 17.4378 27.036C17.7728 26.8815 18.1205 26.67 18.4811 26.4029C18.8416 26.1357 19.1922 25.8255 19.5343 25.472C19.8763 25.1187 20.1673 24.7374 20.4072 24.3283C20.5974 23.8566 20.8018 23.3794 21.0247 22.8952C21.2461 22.4109 21.4647 21.9462 21.679 21.4996C21.7557 21.1281 21.7613 20.8359 21.6975 20.6258C21.6336 20.4157 21.5427 20.2543 21.4221 20.1416C21.3014 20.0303 21.1666 19.9593 21.0133 19.9273C20.8614 19.8967 20.7408 19.8814 20.6528 19.8814C20.4257 19.8689 20.1531 19.9649 19.8366 20.1694C19.5201 20.374 19.1851 20.6508 18.8302 20.9973C18.4754 21.3452 18.1219 21.7417 17.7671 22.1884C17.4122 22.635 17.09 23.0942 16.799 23.5645C16.5081 24.0361 16.2611 24.4981 16.0595 24.9503C15.8565 25.4025 15.7331 25.8032 15.689 26.1497C15.645 26.4975 15.689 26.7758 15.8225 26.9873C15.9573 27.1988 16.2199 27.299 16.6117 27.2864Z" fill="#ED165F" fill-opacity="1.000000" fill-rule="nonzero"/>
	<path id="XMLID 30" d="M34.0735 13.0343C34.275 13.0218 34.4496 13.0621 34.5958 13.1554C34.7406 13.2486 34.8513 13.3696 34.928 13.5186C35.0032 13.6674 35.0358 13.8316 35.0231 14.0111C35.0103 14.1906 34.9592 14.3548 34.8712 14.5037C34.3275 15.3594 33.7385 16.3431 33.1054 17.452C32.4724 18.5624 31.8336 19.7493 31.1892 21.0154C31.9103 21.1142 32.654 21.1893 33.4191 21.238C34.1842 21.2881 34.8996 21.2812 35.5639 21.22C36.2281 21.1588 36.8073 21.0251 37.3012 20.8206C37.7952 20.6161 38.1358 20.3086 38.326 19.8995C38.4396 19.6644 38.5815 19.5085 38.7533 19.4348C38.9236 19.361 39.0783 19.3513 39.2189 19.407C39.358 19.4626 39.463 19.5656 39.5326 19.7145C39.6021 19.8633 39.5993 20.0373 39.5226 20.2349C39.2941 20.7803 38.9662 21.2241 38.5361 21.5651C38.106 21.9059 37.622 22.1731 37.0841 22.3651C36.5461 22.5571 35.9698 22.6851 35.3566 22.7463C34.7434 22.809 34.1359 22.8298 33.5341 22.8118C32.9323 22.7936 32.3673 22.7505 31.835 22.681C31.3042 22.6128 30.8414 22.5418 30.4497 22.4667C30.3475 22.6782 30.251 22.8855 30.1559 23.09C30.0608 23.2946 29.9628 23.5019 29.862 23.7134C29.9884 24.1851 30.1246 24.743 30.2708 25.3872C30.4156 26.0328 30.5334 26.7397 30.6214 27.5078C30.7094 28.2772 30.7605 29.0898 30.7733 29.9455C30.7861 30.8012 30.7293 31.6764 30.603 32.5683C30.4128 33.8581 30.1601 34.9531 29.8436 35.852C29.5271 36.7509 29.1793 37.4897 28.8003 38.0657C28.4213 38.6418 28.0281 39.0884 27.6236 39.4056C27.2191 39.7215 26.833 39.951 26.4654 40.0944C26.0977 40.2363 25.767 40.317 25.4689 40.3365C25.1723 40.3546 24.9409 40.3518 24.7763 40.3268C24.2695 40.253 23.8267 40.0596 23.4477 39.7507C23.0687 39.4404 22.7649 39.0439 22.5364 38.5597C22.3093 38.0754 22.1631 37.5245 22.0992 36.9039C22.0368 36.2833 22.068 35.6266 22.1943 34.9323C22.3462 34.1266 22.5861 33.2306 22.9154 32.2441C23.2447 31.2576 23.6336 30.2252 24.0822 29.1468C24.5321 28.0671 25.0161 26.9734 25.5342 25.8631C26.0523 24.7527 26.5775 23.6772 27.1098 22.635C26.6669 22.1508 26.2865 21.8976 25.9714 21.8726C25.7699 21.86 25.6804 21.7696 25.706 21.6026C25.7315 21.4356 25.8195 21.252 25.9714 21.0544C26.1233 20.8554 26.3036 20.6732 26.5122 20.5062C26.7209 20.3392 26.9011 20.2557 27.053 20.2557C27.0786 20.2557 27.195 20.2808 27.4036 20.3295C27.6123 20.3796 27.8805 20.4352 28.2098 20.4965C28.5888 19.7646 28.9536 19.08 29.3014 18.4413C29.6491 17.8027 29.9628 17.235 30.241 16.7383C30.5192 16.2429 30.7534 15.8269 30.9436 15.4916C31.1338 15.1562 31.2602 14.9336 31.3226 14.8223C31.4873 14.5245 31.6959 14.2671 31.9486 14.05C32.2012 13.833 32.4638 13.6535 32.7364 13.5102C33.0089 13.3683 33.2644 13.2598 33.5043 13.1846C33.7442 13.1094 33.9344 13.0594 34.0735 13.0343ZM29.4987 32.1982C29.625 30.9695 29.6193 29.8231 29.4802 28.7558C29.3411 27.6886 29.1254 26.7216 28.8344 25.8533C28.3404 26.9331 27.8692 27.9989 27.4206 29.0536C26.9707 30.1083 26.5732 31.1129 26.2255 32.0674C25.8777 33.0219 25.5867 33.9068 25.3525 34.7194C25.1183 35.532 24.9608 36.2388 24.8785 36.8399C24.7961 37.441 24.8032 37.9182 24.8969 38.2717C24.992 38.6251 25.1978 38.8199 25.5144 38.8574C26.2099 38.9326 26.7791 38.7712 27.2219 38.3746C27.6648 37.9781 28.0282 37.4465 28.3135 36.7842C28.5988 36.1205 28.8287 35.3831 29.0061 34.5705C29.1821 33.7579 29.3468 32.9662 29.4987 32.1982Z" fill="#ED165F" fill-opacity="1.000000" fill-rule="nonzero"/>
	<path id="XMLID 26" d="M46.9789 17.4812C47.206 17.4812 47.3933 17.5272 47.5381 17.6204C47.6829 17.7136 47.795 17.8193 47.8703 17.9362C47.9455 18.0545 47.9938 18.1783 48.0122 18.3077C48.0307 18.4385 48.0335 18.5471 48.0221 18.6333C47.971 18.8685 47.8575 19.1662 47.6801 19.5266C47.5026 19.887 47.2968 20.2835 47.0626 20.7177C46.8284 21.1517 46.5715 21.6137 46.2933 22.1035C46.0151 22.5933 45.7496 23.0746 45.4956 23.545C45.2429 24.0167 45.0144 24.4758 44.8128 24.9211C44.6098 25.3677 44.4651 25.7643 44.3756 26.1121C44.3004 26.3973 44.3089 26.556 44.404 26.5866C44.4991 26.6172 44.6723 26.5462 44.9264 26.3723C45.3692 26.087 45.8376 25.7114 46.3302 25.2466C46.8241 24.7819 47.3139 24.2852 47.8007 23.7579C48.2876 23.2305 48.756 22.6976 49.2045 22.1577C49.6531 21.6179 50.0519 21.1281 50.3997 20.6884C50.7474 20.2487 51.0356 19.8828 51.2627 19.5906C51.4898 19.2998 51.6232 19.1412 51.6616 19.1161C51.7127 19.0786 51.785 19.0605 51.8801 19.0605C51.9752 19.0605 52.0633 19.0827 52.1456 19.1259C52.2279 19.169 52.2904 19.2288 52.3358 19.3026C52.3798 19.3763 52.3769 19.4695 52.3259 19.5822C52.2875 19.656 52.1683 19.8522 51.9653 20.168C51.7623 20.4839 51.4912 20.8776 51.1491 21.3493C50.8071 21.821 50.4096 22.3414 49.954 22.9119C49.4983 23.4824 49.0072 24.0654 48.4835 24.6609C47.9583 25.2564 47.4047 25.8366 46.8227 26.4001C46.2408 26.965 45.6517 27.4701 45.057 27.9167C44.9562 27.9794 44.8071 28.0754 44.6113 28.2048C44.4154 28.3356 44.184 28.4594 43.9186 28.5763C43.6531 28.6946 43.3678 28.7864 43.0641 28.856C42.7603 28.9241 42.4637 28.9395 42.1727 28.9019C41.9442 28.8643 41.7639 28.778 41.6319 28.6417C41.4985 28.5053 41.4076 28.3259 41.3565 28.1018C41.3054 27.8792 41.2926 27.6218 41.3182 27.3296C41.3437 27.0388 41.3948 26.7243 41.4701 26.3904C41.1919 26.6757 40.8498 26.9636 40.4452 27.2559C40.0407 27.548 39.6191 27.8082 39.1834 28.0378C38.7462 28.2674 38.3232 28.4594 37.9116 28.6152C37.4999 28.7711 37.1493 28.8546 36.8584 28.8657C36.4027 28.8782 36.011 28.8156 35.6816 28.6793C35.3523 28.5429 35.0841 28.3606 34.8754 28.131C34.6668 27.9014 34.5149 27.644 34.4198 27.3588C34.3247 27.0735 34.2778 26.7883 34.2778 26.5031C34.2778 26.1066 34.3417 25.6501 34.468 25.1353C34.5944 24.6205 34.7817 24.0876 35.0273 23.5352C35.2743 22.9843 35.5837 22.4374 35.957 21.8975C36.3303 21.3577 36.7661 20.8553 37.2671 20.3906C37.7668 19.9259 38.326 19.5224 38.9463 19.1815C39.5666 18.8406 40.2565 18.6013 41.0159 18.465C41.4843 18.3787 41.9016 18.3536 42.2678 18.3912C42.6354 18.4288 42.9534 18.5123 43.2259 18.6417C43.4984 18.7725 43.7227 18.9422 43.9001 19.1537C44.0776 19.3652 44.2096 19.5878 44.299 19.8229C44.4509 19.5377 44.5871 19.29 44.7078 19.0786C44.8284 18.8685 44.9264 18.707 45.0016 18.5944C45.2032 18.2479 45.4132 17.996 45.6276 17.8402C45.8419 17.6857 46.042 17.58 46.2252 17.5244C46.4083 17.4687 46.5672 17.4464 46.6992 17.459C46.8369 17.4742 46.9292 17.4812 46.9789 17.4812ZM38.3431 27.2864C38.5574 27.2739 38.8328 27.1904 39.1692 27.036C39.5042 26.8815 39.8519 26.67 40.2125 26.4029C40.573 26.1357 40.9236 25.8255 41.2657 25.472C41.6078 25.1187 41.8987 24.7374 42.1386 24.3283C42.3288 23.8566 42.5332 23.3794 42.7561 22.8952C42.9775 22.4109 43.1961 21.9462 43.4104 21.4996C43.4871 21.1281 43.4928 20.8359 43.4289 20.6258C43.365 20.4157 43.2742 20.2543 43.1535 20.1416C43.0329 20.0303 42.898 19.9593 42.7447 19.9273C42.5928 19.8967 42.4722 19.8814 42.3842 19.8814C42.1571 19.8689 41.8845 19.9649 41.568 20.1694C41.2515 20.374 40.9165 20.6508 40.5616 20.9973C40.2068 21.3452 39.8533 21.7417 39.4985 22.1884C39.1436 22.635 38.8214 23.0942 38.5304 23.5645C38.2395 24.0361 37.9925 24.4981 37.7909 24.9503C37.5879 25.4025 37.4644 25.8032 37.4204 26.1497C37.3764 26.4975 37.4204 26.7758 37.5539 26.9873C37.6887 27.1988 37.9513 27.299 38.3431 27.2864Z" fill="#ED165F" fill-opacity="1.000000" fill-rule="nonzero"/>
	<path id="XMLID 10" d="M51.8191 16.1232C52.0845 16.1107 52.3031 16.1663 52.4735 16.2902C52.6438 16.414 52.729 16.6185 52.729 16.9037C52.729 17.0401 52.6821 17.2321 52.587 17.4812C52.4919 17.7289 52.394 17.9779 52.2932 18.2256C52.1541 18.5109 52.0079 18.8141 51.856 19.137C51.944 19.2733 52.1654 19.3387 52.5203 19.3318C52.8737 19.3262 53.2797 19.2858 53.7353 19.2107C54.191 19.1356 54.6594 19.0563 55.1392 18.9686C55.6203 18.8823 56.0306 18.8267 56.3727 18.8016C56.6381 18.7891 56.8411 18.842 56.9802 18.9603C57.1193 19.0786 57.2144 19.2246 57.2655 19.3972C57.3166 19.5711 57.3251 19.7534 57.2939 19.9454C57.2626 20.1374 57.2016 20.296 57.1136 20.4199C57.0625 20.4936 56.9362 20.7079 56.7346 21.0613C56.5316 21.4147 56.3017 21.8433 56.0419 22.3456C55.7822 22.8478 55.5224 23.3849 55.2641 23.9554C55.0043 24.5259 54.7985 25.056 54.6466 25.5458C54.4947 26.0356 54.4223 26.4543 54.428 26.8022C54.4337 27.1501 54.5771 27.3421 54.8553 27.3796C55.0071 27.4047 55.2669 27.2934 55.6331 27.0443C56.0008 26.7966 56.4266 26.4613 56.9149 26.0397C57.4017 25.6182 57.917 25.1284 58.4621 24.5704C59.0057 24.0125 59.5352 23.442 60.0476 22.859C60.56 22.276 61.0284 21.7 61.4514 21.1281C61.8758 20.5576 62.208 20.0428 62.4478 19.5836C62.5117 19.4598 62.6097 19.3763 62.7417 19.3318C62.8751 19.2886 63.0071 19.2858 63.1405 19.322C63.274 19.3582 63.3804 19.4403 63.4627 19.5641C63.5451 19.688 63.5678 19.8619 63.5295 20.0845C63.5167 20.1472 63.4131 20.335 63.2158 20.6522C63.0199 20.9681 62.7573 21.3618 62.428 21.8335C62.0987 22.3052 61.7069 22.8284 61.2513 23.4058C60.7956 23.9832 60.3059 24.5621 59.7807 25.1451C59.2555 25.7281 58.7019 26.286 58.12 26.8189C57.538 27.3518 56.9489 27.8082 56.3542 28.1866C55.7594 28.5651 55.1675 28.8434 54.5799 29.0243C53.9908 29.2038 53.4245 29.2316 52.8808 29.1078C52.3613 28.9839 51.9667 28.7794 51.6942 28.4942C51.4216 28.2089 51.2485 27.868 51.1718 27.4715C51.0966 27.075 51.0966 26.6408 51.1718 26.1691C51.2471 25.6974 51.3649 25.2272 51.5224 24.7555C51.68 24.2838 51.8674 23.8218 52.0817 23.3696C52.296 22.9174 52.5061 22.5111 52.7077 22.1508C52.9092 21.7917 53.0838 21.4968 53.23 21.2672C53.3748 21.0377 53.4671 20.8985 53.5054 20.8484C53.6445 20.6745 53.6601 20.545 53.5522 20.4574C53.4444 20.3712 53.3024 20.3586 53.125 20.4199C52.9348 20.4936 52.6722 20.5562 52.3372 20.6063C52.0022 20.6564 51.6658 20.6369 51.3308 20.5507C50.9958 20.4644 50.7006 20.2779 50.4479 19.9927C50.1953 19.7075 50.0618 19.2678 50.0491 18.6722C50.0363 18.4858 50.0647 18.2507 50.1342 17.9654C50.2038 17.6802 50.3145 17.4047 50.4664 17.1375C50.6182 16.8704 50.8042 16.638 51.0256 16.4404C51.2527 16.2415 51.5153 16.1357 51.8191 16.1232Z" fill="#ED165F" fill-opacity="1.000000" fill-rule="nonzero"/>
	<path id="XMLID 7" d="M64.0602 18.913C64.2888 18.9255 64.4776 18.9756 64.6294 19.0618C64.7813 19.1481 64.8949 19.2538 64.9715 19.3777C65.0468 19.5015 65.095 19.6281 65.1135 19.7589C65.1319 19.8897 65.1362 19.9982 65.1234 20.0845C65.0482 20.4199 64.858 20.8693 64.5542 21.4328C64.2505 21.9977 63.9155 22.5988 63.5478 23.2374C63.1802 23.8761 62.8296 24.5245 62.4946 25.1812C62.1596 25.8394 61.9226 26.4279 61.7835 26.9483C61.7068 27.2336 61.748 27.3824 61.907 27.395C62.0645 27.4075 62.2704 27.3323 62.5244 27.1724C62.9545 26.8871 63.4542 26.5059 64.0233 26.0286C64.5925 25.5513 65.1745 25.0366 65.7692 24.4841C66.364 23.9332 66.9488 23.3766 67.5251 22.8186C68.1014 22.2607 68.6166 21.7487 69.0722 21.2839C69.5279 20.8192 69.904 20.4352 70.2021 20.1304C70.4988 19.8271 70.6677 19.6629 70.7046 19.6379C70.7557 19.6003 70.8281 19.5822 70.9232 19.5822C71.0183 19.5822 71.1063 19.6045 71.1886 19.6476C71.2709 19.6907 71.3334 19.7506 71.3788 19.8243C71.4228 19.8995 71.42 19.9913 71.3689 20.104C71.3306 20.1777 71.173 20.3809 70.8948 20.7093C70.6166 21.0377 70.256 21.4481 69.8132 21.9379C69.3703 22.4277 68.8579 22.9731 68.2759 23.5756C67.694 24.1766 67.0865 24.7819 66.4534 25.39C65.8203 25.998 65.1745 26.5894 64.5173 27.1667C63.8587 27.7442 63.2327 28.2549 62.638 28.7015C62.55 28.7641 62.4038 28.8601 62.2008 28.9895C61.9978 29.1203 61.7679 29.2441 61.5081 29.361C61.2484 29.4793 60.9673 29.5753 60.6636 29.649C60.3598 29.7228 60.0561 29.7422 59.7523 29.7047C59.2839 29.6421 58.9957 29.3916 58.8893 28.9506C58.7814 28.5109 58.7913 27.971 58.9177 27.3323C59.044 26.6937 59.2555 25.9966 59.5536 25.2397C59.8502 24.4827 60.1639 23.7578 60.4932 23.0635C60.8225 22.3692 61.1348 21.7487 61.4329 21.2032C61.7296 20.6578 61.9481 20.2668 62.0872 20.0316C62.2902 19.6963 62.4989 19.4487 62.7132 19.2872C62.9276 19.1259 63.1277 19.0173 63.3108 18.9617C63.4939 18.906 63.6529 18.8837 63.7849 18.8962C63.9183 18.9074 64.0106 18.913 64.0602 18.913ZM64.3072 15.7878C64.4208 15.5638 64.5571 15.3718 64.7146 15.2104C64.8722 15.049 65.0397 14.9252 65.2171 14.8389C65.3945 14.7526 65.5776 14.7026 65.7678 14.6901C65.958 14.6775 66.134 14.7081 66.2987 14.7833C66.4633 14.8695 66.5996 14.9906 66.7075 15.1464C66.8154 15.3022 66.8877 15.4748 66.9261 15.6668C66.9644 15.8588 66.9672 16.0675 66.936 16.2902C66.9048 16.5142 66.831 16.7368 66.7174 16.9594C66.6039 17.1834 66.4676 17.3754 66.31 17.5369C66.1511 17.6982 65.9836 17.8221 65.8076 17.9084C65.6301 17.9946 65.447 18.0447 65.2568 18.0573C65.0666 18.0698 64.8892 18.0391 64.726 17.964C64.3967 17.8026 64.1908 17.5118 64.1085 17.0888C64.0262 16.6686 64.0929 16.2345 64.3072 15.7878Z" fill="#ED165F" fill-opacity="1.000000" fill-rule="nonzero"/>
</svg>
