<svg width="13.333328" height="13.333313" viewBox="0 0 13.3333 13.3333" fill="none" xmlns="http://www.w3.org/2000/svg" xmlns:xlink="http://www.w3.org/1999/xlink">
	<desc>
			Created with Pixso.
	</desc>
	<defs/>
	<path id="Vector" d="M10.6667 10.6667C9.92667 10.6667 9.33333 11.26 9.33333 12C9.33333 12.3536 9.47382 12.6927 9.72386 12.9428C9.97391 13.1929 10.313 13.3333 10.6667 13.3333C11.0203 13.3333 11.3594 13.1929 11.6095 12.9428C11.8595 12.6927 12 12.3536 12 12C12 11.6464 11.8595 11.3073 11.6095 11.0572C11.3594 10.8071 11.0203 10.6667 10.6667 10.6667ZM0 0L0 1.33331L1.33333 1.33331L3.73334 6.39331L2.82666 8.02667C2.72667 8.21332 2.66667 8.43335 2.66667 8.66669C2.66667 9.02026 2.80714 9.35944 3.05719 9.6095C3.30724 9.8595 3.64638 10 4 10L12 10L12 8.66669L4.28 8.66669C4.23579 8.66669 4.19341 8.64911 4.16216 8.61786C4.13089 8.58661 4.11333 8.54419 4.11333 8.5C4.11333 8.46667 4.12 8.44 4.13333 8.41998L4.73334 7.33331L9.7 7.33331C10.2 7.33331 10.64 7.05334 10.8667 6.64667L13.2533 2.33331C13.3 2.22668 13.3333 2.11334 13.3333 2C13.3333 1.82318 13.2631 1.65363 13.1381 1.52863C13.013 1.40356 12.8435 1.33331 12.6667 1.33331L2.80667 1.33331L2.17999 0L0 0ZM4 10.6667C3.25999 10.6667 2.66667 11.26 2.66667 12C2.66667 12.3536 2.80714 12.6927 3.05719 12.9428C3.30724 13.1929 3.64638 13.3333 4 13.3333C4.35362 13.3333 4.69276 13.1929 4.94281 12.9428C5.19286 12.6927 5.33333 12.3536 5.33333 12C5.33333 11.6464 5.19286 11.3073 4.94281 11.0572C4.69276 10.8071 4.35362 10.6667 4 10.6667Z" fill="#ED165F" fill-opacity="1.000000" fill-rule="nonzero"/>
	<path id="Vector" d="M7.5 2.66675L7.5 5.66675M6 4.16675L9 4.16675" stroke="#FFFFFF" stroke-opacity="1.000000" stroke-width="0.500000"/>
</svg>
