<svg width="16.322266" height="16.000000" viewBox="0 0 16.3223 16" fill="none" xmlns="http://www.w3.org/2000/svg" xmlns:xlink="http://www.w3.org/1999/xlink">
	<desc>
			Created with Pixso.
	</desc>
	<defs/>
	<path id="Vector" d="M13.0576 12.8C12.1519 12.8 11.4258 13.512 11.4258 14.4C11.4258 14.8243 11.5977 15.2313 11.9038 15.5314C12.21 15.8314 12.625 16 13.0576 16C13.4907 16 13.9058 15.8314 14.2119 15.5314C14.5181 15.2313 14.6899 14.8243 14.6899 14.4C14.6899 13.9756 14.5181 13.5687 14.2119 13.2686C13.9058 12.9686 13.4907 12.8 13.0576 12.8ZM0 0L0 1.59998L1.63232 1.59998L4.57031 7.672L3.46045 9.63202C3.33789 9.85602 3.26465 10.12 3.26465 10.4C3.26465 10.8243 3.43652 11.2313 3.74268 11.5314C4.04883 11.8314 4.46387 12 4.89648 12L14.6899 12L14.6899 10.4L5.23926 10.4C5.18555 10.4 5.1333 10.3789 5.09521 10.3414C5.05713 10.3039 5.03564 10.2531 5.03564 10.2C5.03564 10.16 5.04346 10.128 5.06006 10.104L5.79443 8.79999L11.8745 8.79999C12.4863 8.79999 13.0254 8.46399 13.3027 7.97601L16.2241 2.79999C16.2812 2.672 16.3223 2.53601 16.3223 2.40002C16.3223 2.18781 16.2363 1.98431 16.083 1.83429C15.9302 1.68427 15.7227 1.59998 15.5063 1.59998L3.43604 1.59998L2.66846 0L0 0ZM4.89648 12.8C3.99072 12.8 3.26465 13.512 3.26465 14.4C3.26465 14.8243 3.43652 15.2313 3.74268 15.5314C4.04883 15.8314 4.46387 16 4.89648 16C5.32959 16 5.74463 15.8314 6.05078 15.5314C6.35693 15.2313 6.52881 14.8243 6.52881 14.4C6.52881 13.9756 6.35693 13.5687 6.05078 13.2686C5.74463 12.9686 5.32959 12.8 4.89648 12.8Z" fill="#ED165F" fill-opacity="1.000000" fill-rule="nonzero"/>
</svg>
