<svg width="14.000000" height="11.356445" viewBox="0 0 14 11.3564" fill="none" xmlns="http://www.w3.org/2000/svg" xmlns:xlink="http://www.w3.org/1999/xlink">
	<desc>
			Created with Pixso.
	</desc>
	<defs/>
	<path id="Path 39" d="M4.43298 11.3562C5.50821 11.3657 6.57458 11.1611 7.56985 10.7542C8.56512 10.3472 9.46933 9.74609 10.2296 8.98584C10.99 8.22534 11.5912 7.32129 11.9982 6.32593C12.4052 5.33081 12.6097 4.2644 12.6 3.18921L12.6 2.80005C13.1434 2.38623 13.6162 1.88721 14 1.32202C13.4786 1.54907 12.9295 1.70605 12.367 1.78906C12.9454 1.42578 13.3839 0.877197 13.611 0.233154C13.049 0.546143 12.4472 0.781494 11.822 0.933105C11.5588 0.636719 11.2352 0.400146 10.873 0.239258C10.5108 0.0783691 10.1183 -0.00317383 9.72198 0C8.96225 0.0114746 8.23679 0.318359 7.69952 0.855713C7.16223 1.39282 6.85535 2.11841 6.84399 2.87817C6.82639 3.08862 6.85294 3.30054 6.922 3.5C5.77753 3.44482 4.65805 3.14575 3.63861 2.62256C2.61917 2.09961 1.7233 1.3645 1.01099 0.467041C0.755005 0.91748 0.620941 1.427 0.622009 1.94507C0.632263 2.41504 0.749664 2.87671 0.96524 3.29443C1.18082 3.71216 1.48889 4.07544 1.866 4.3562C1.39853 4.34668 0.942108 4.2124 0.544006 3.96704C0.543274 4.6333 0.776428 5.27832 1.20282 5.79004C1.62921 6.30176 2.22171 6.64771 2.87701 6.76709C2.62369 6.83545 2.36084 6.86182 2.099 6.84521C1.91422 6.85742 1.72888 6.83081 1.55499 6.76709C1.7453 7.34351 2.10886 7.84692 2.59607 8.20874C3.08325 8.5708 3.67029 8.77344 4.27701 8.78906C3.25479 9.5874 1.99701 10.0249 0.700012 10.0332C0.463959 10.0457 0.227478 10.0193 0 9.95508C1.28699 10.8896 2.84268 11.3811 4.43298 11.355L4.43298 11.3562Z" fill="#ED165F" fill-opacity="1.000000" fill-rule="evenodd"/>
</svg>
