<svg width="16.322266" height="16.000000" viewBox="0 0 16.3223 16" fill="none" xmlns="http://www.w3.org/2000/svg" xmlns:xlink="http://www.w3.org/1999/xlink">
	<desc>
			Created with Pixso.
	</desc>
	<defs/>
	<path id="Vector" d="M8.16113 0C9.24341 0 10.2812 0.421448 11.0465 1.17157C11.8118 1.92169 12.2417 2.93915 12.2417 4C12.2417 5.06085 11.8118 6.07831 11.0465 6.82843C10.2812 7.57855 9.24341 8 8.16113 8C7.07886 8 6.04102 7.57855 5.27576 6.82843C4.5105 6.07831 4.08057 5.06085 4.08057 4C4.08057 2.93915 4.5105 1.92169 5.27576 1.17157C6.04102 0.421448 7.07886 0 8.16113 0ZM8.16113 10C12.6702 10 16.3223 11.79 16.3223 14L16.3223 16L0 16L0 14C0 11.79 3.6521 10 8.16113 10Z" fill="#ED165F" fill-opacity="1.000000" fill-rule="nonzero"/>
</svg>
