<svg width="16.000000" height="16.000000" viewBox="0 0 16 16" fill="none" xmlns="http://www.w3.org/2000/svg"
    xmlns:xlink="http://www.w3.org/1999/xlink">
    <desc>
        Created with Pixso.
    </desc>
    <defs />
    <path id="Vector"
        d="M7.99902 0C3.58105 0 0 3.58218 0 8.00027C0 12.4178 3.58105 16 7.99902 16C12.418 16 16 12.4172 16 8.00027C16 3.58218 12.418 0 7.99902 0ZM11.4385 10.1664L10.1641 11.4389C10.1641 11.4389 8.14844 9.27615 7.99805 9.27615C7.84961 9.27615 5.83398 11.4389 5.83398 11.4389L4.55859 10.1664C4.55859 10.1664 6.72363 8.17993 6.72363 8.00314C6.72363 7.82349 4.55859 5.83643 4.55859 5.83643L5.83398 4.56113C5.83398 4.56113 7.86621 6.72498 7.99805 6.72498C8.13086 6.72498 10.1641 4.56113 10.1641 4.56113L11.4385 5.83643C11.4385 5.83643 9.27246 7.85211 9.27246 8.00314C9.27246 8.14676 11.4385 10.1664 11.4385 10.1664Z"
        fill="#ED165F" fill-opacity="1.000000" fill-rule="nonzero" />
</svg>